<?xml version="1.0" encoding="utf-8"?>
<!-- Generator: Adobe Illustrator 16.0.0, SVG Export Plug-In . SVG Version: 6.00 Build 0)  -->
<!DOCTYPE svg PUBLIC "-//W3C//DTD SVG 1.1//EN" "http://www.w3.org/Graphics/SVG/1.1/DTD/svg11.dtd">
<svg version="1.1" id="Layer_1" xmlns="http://www.w3.org/2000/svg" xmlns:xlink="http://www.w3.org/1999/xlink" x="0px" y="0px"
	 width="46.486px" height="46.454px" viewBox="9.538 2.55 46.486 46.454" enable-background="new 9.538 2.55 46.486 46.454"
	 xml:space="preserve">
<path display="none" d="M-12.077,20.222c0-3.066-1.279-5.023-3.325-6.207c0.078-0.438,0.125-0.885,0.125-1.345
	c0-4.217-3.418-7.635-7.635-7.635s-7.635,3.418-7.635,7.635c0,0.46,0.047,0.908,0.125,1.345c-0.352,0.204-0.68,0.431-0.983,0.682
	c-1.719,0.218-3.762,0.84-5.845,2.06c-5.142,3.011-10.16,8.83-5.255,22.677c-0.749,0.158-1.311,0.822-1.311,1.618
	c0,0.812,0.587,1.485,1.359,1.625c0.183,0.813,0.907,1.423,1.777,1.423c0.282,0,0.546-0.069,0.786-0.184
	c0.334,0.458,0.813,0.752,1.352,0.752c1.007,0,1.824-1.008,1.824-2.249c0-0.47-0.117-0.905-0.317-1.267
	c0.535-0.318,0.897-0.896,0.897-1.562c0-1.007-0.816-1.824-1.824-1.824c-0.109,0-0.215,0.014-0.319,0.033
	c-0.194-12.525,1.831-11.898,4.775-13.45c0.309,1.967,1.01,3.808,2.598,5.518c0.245,1.565,0.777,3.21,0.777,3.827
	c0,0.338,0.039,0.654,0.094,0.963c-0.654,1.279-1.368,3.712-1.121,7.547c-1.409,0.036-2.622,0.361-3.286,0.833
	c-0.161-0.097-0.349-0.156-0.55-0.156c-0.594,0-1.075,0.481-1.075,1.075c0,0.059,0.008,0.115,0.018,0.17
	c-0.134,0.207-0.214,0.453-0.214,0.718c0,0.64,0.454,1.173,1.057,1.296c0.15,0.734,0.799,1.285,1.578,1.285
	c0.647,0,1.2-0.383,1.457-0.932c0.196,0.115,0.422,0.186,0.667,0.186c0.681,0,1.235-0.516,1.308-1.178
	c1.933-0.134,3.407-0.815,3.407-1.639c0-0.451-0.443-0.859-1.161-1.159c0.095-2.29,0.697-3.497,1.204-4.116
	c1.145,0.521,2.479,0.791,3.84,0.791c3.705,0,6.708-3.003,6.708-6.707c0-0.617-0.09-1.212-0.247-1.78
	C-13.797,28.034-12.077,23.785-12.077,20.222z"/>
<g display="none">
	<g display="inline">
		<g>
			<path d="M-23.778,6.062l1.705-0.552c-0.173-0.495-0.458-0.77-0.712-0.99c-0.26-0.221-0.518-0.353-0.765-0.473
				c-0.496-0.219-0.958-0.313-1.359-0.335c-0.4-0.021-0.747,0.041-0.984,0.162c-0.253,0.128-0.339,0.327-0.264,0.42
				c0.078,0.104,0.177,0.18,0.31,0.276c0.146,0.1,0.357,0.217,0.621,0.37c0.261,0.151,0.573,0.336,0.874,0.551
				c0.141,0.111,0.296,0.224,0.398,0.339C-23.845,5.939-23.776,6.056-23.778,6.062z"/>
		</g>
	</g>
</g>
<g display="none">
	<g display="inline">
		<g>
			<path d="M-29.968,15.002l1.604-0.798c-0.234-0.447-0.546-0.682-0.824-0.863c-0.284-0.183-0.554-0.276-0.812-0.361
				c-0.515-0.147-0.98-0.175-1.376-0.139c-0.394,0.038-0.725,0.149-0.938,0.304c-0.228,0.165-0.279,0.372-0.191,0.454
				c0.092,0.092,0.202,0.152,0.343,0.228c0.155,0.078,0.374,0.162,0.649,0.274c0.272,0.111,0.599,0.248,0.916,0.418
				c0.15,0.089,0.314,0.178,0.427,0.276C-30.053,14.887-29.972,14.988-29.968,15.002z"/>
		</g>
	</g>
</g>
<g display="none">
	<g display="inline">
		<g>
			<path d="M-25.182,7.091l1.604-0.799c-0.233-0.447-0.549-0.682-0.825-0.861c-0.283-0.18-0.549-0.271-0.804-0.355
				c-0.506-0.146-0.956-0.179-1.336-0.16c-0.38,0.021-0.691,0.101-0.905,0.218c-0.221,0.117-0.323,0.282-0.271,0.392
				c0.053,0.116,0.147,0.206,0.303,0.305c0.16,0.1,0.393,0.21,0.674,0.336c0.279,0.127,0.612,0.272,0.933,0.445
				c0.152,0.09,0.317,0.18,0.43,0.277C-25.264,6.981-25.186,7.079-25.182,7.091z"/>
		</g>
	</g>
</g>
<g display="none">
	<g display="inline">
		<g>
			<path d="M-26.639,7.661l1.655-0.525c-0.167-0.502-0.504-0.805-0.787-0.996c-0.293-0.199-0.565-0.291-0.821-0.37
				c-0.508-0.136-0.946-0.15-1.312-0.12C-28.627,5.708-29.097,6-29.038,6.248c0.054,0.238,0.395,0.414,0.963,0.658
				c0.277,0.12,0.604,0.253,0.904,0.411c0.142,0.082,0.292,0.166,0.375,0.248c0.055,0.038,0.071,0.075,0.09,0.096
				c0,0.01,0.014,0.018,0.014,0.021c0,0-0.01,0.003,0.001-0.002C-26.677,7.672-26.659,7.666-26.639,7.661z"/>
		</g>
	</g>
</g>
<g display="none">
	<g display="inline">
		<g>
			<path d="M-27.927,8.884l1.705-0.552c-0.172-0.495-0.458-0.771-0.711-0.99c-0.26-0.221-0.518-0.353-0.766-0.473
				c-0.496-0.219-0.958-0.313-1.359-0.335c-0.4-0.021-0.747,0.041-0.983,0.162c-0.253,0.127-0.339,0.327-0.264,0.42
				c0.078,0.104,0.177,0.18,0.31,0.276c0.146,0.1,0.357,0.217,0.621,0.37c0.261,0.152,0.574,0.336,0.874,0.552
				c0.141,0.111,0.296,0.224,0.398,0.339C-27.994,8.761-27.924,8.878-27.927,8.884z"/>
		</g>
	</g>
</g>
<g display="none">
	<g display="inline">
		<g>
			<path d="M-28.64,9.009l1.557-0.775c-0.244-0.474-0.623-0.72-0.934-0.868c-0.323-0.154-0.611-0.205-0.882-0.242
				c-0.536-0.056-0.988,0.008-1.358,0.115c-0.369,0.108-0.658,0.271-0.833,0.446c-0.183,0.18-0.22,0.373-0.135,0.458
				c0.09,0.093,0.207,0.144,0.372,0.199c0.171,0.054,0.405,0.101,0.691,0.162c0.284,0.06,0.622,0.133,0.94,0.241
				c0.152,0.057,0.312,0.118,0.408,0.186c0.06,0.03,0.084,0.064,0.108,0.084c0.003,0.01,0.017,0.017,0.019,0.021
				c-0.002,0.002-0.004,0.002-0.004,0.002C-28.681,9.028-28.66,9.016-28.64,9.009z"/>
		</g>
	</g>
</g>
<g display="none">
	<g display="inline">
		<g>
			<path d="M-29.275,9.51l1.516-0.932l-0.219-0.3c-0.097-0.098-0.223-0.189-0.342-0.267c-0.117-0.065-0.232-0.104-0.35-0.146
				c-0.118-0.039-0.208-0.043-0.313-0.061c-0.39-0.037-0.688,0.018-0.94,0.086c-0.509,0.14-0.881,0.343-1.177,0.538
				c-0.589,0.401-0.835,0.759-0.758,0.986c0.082,0.241,0.573,0.269,1.201,0.201c0.314-0.03,0.681-0.084,1.021-0.099
				c0.169-0.012,0.329,0.003,0.404,0.025c0.009,0.008,0.041,0.007,0.034,0.013c-0.009,0.018,0.002-0.026,0.022-0.069l0.03-0.059
				l0.018-0.029l0.005-0.007l0.001-0.002c-0.178,0.322-0.05,0.089-0.09,0.161h-0.001l-0.004,0c-0.024-0.002-0.048-0.025-0.054-0.042
				L-29.275,9.51z"/>
		</g>
	</g>
</g>
<g display="none">
	<g display="inline">
		<g>
			<path d="M-29.652,11.208l1.461-0.95l-0.203-0.297c-0.083-0.084-0.177-0.158-0.264-0.236c-0.119-0.072-0.257-0.132-0.389-0.179
				c-0.116-0.03-0.225-0.045-0.336-0.06c-0.399-0.021-0.69,0.049-0.93,0.127c-0.486,0.16-0.83,0.37-1.107,0.564
				c-0.274,0.196-0.467,0.382-0.585,0.54c-0.115,0.158-0.155,0.284-0.141,0.41c0.014,0.122,0.167,0.212,0.383,0.244
				c0.214,0.034,0.494,0.022,0.808-0.016c0.312-0.036,0.673-0.103,1.004-0.131c0.166-0.021,0.316-0.007,0.372,0.006
				c0,0.004,0.002,0.006,0.002,0.006c-0.003,0.016,0.01-0.042,0.019-0.066l0.016-0.047l0.009-0.023l0.002-0.005
				c0.039-0.129-0.051,0.172-0.042,0.141h0h-0.002c-0.027,0.002-0.057-0.012-0.072-0.031
				C-29.651,11.207-29.652,11.208-29.652,11.208z"/>
		</g>
	</g>
</g>
<g display="none">
	<g display="inline">
		<g>
			<path d="M-29.792,13.015l1.358-1.082c-0.335-0.41-0.758-0.572-1.09-0.65c-0.345-0.081-0.631-0.069-0.898-0.051
				c-0.523,0.054-0.938,0.197-1.27,0.355c-0.655,0.312-0.988,0.753-0.845,0.964c0.136,0.203,0.517,0.246,1.135,0.27
				c0.301,0.013,0.654,0.021,0.991,0.062c0.161,0.025,0.331,0.051,0.438,0.098c0.064,0.016,0.093,0.044,0.12,0.057
				c0.003,0.009,0.019,0.011,0.02,0.015c0,0-0.008,0.007,0-0.002C-29.822,13.038-29.809,13.026-29.792,13.015z"/>
		</g>
	</g>
</g>
<g display="none">
	<g display="inline">
		<g>
			<path d="M-35.481,17.44l1.483-0.738c-0.306-0.562-0.68-0.751-0.99-0.927c-0.321-0.168-0.618-0.257-0.902-0.328
				c-0.566-0.13-1.07-0.148-1.5-0.108c-0.429,0.042-0.781,0.147-1.02,0.301c-0.251,0.156-0.334,0.377-0.242,0.458
				c0.095,0.091,0.201,0.152,0.371,0.228c0.18,0.075,0.446,0.164,0.775,0.275c0.327,0.112,0.719,0.248,1.112,0.419
				c0.191,0.088,0.393,0.182,0.547,0.286c0.087,0.049,0.139,0.103,0.196,0.144c0.013,0.02,0.028,0.036,0.048,0.05
				c-0.001,0.004-0.004,0.005-0.004,0.005C-35.615,17.506-35.526,17.454-35.481,17.44z"/>
		</g>
	</g>
</g>
<g display="none">
	<g display="inline">
		<g>
			<path d="M-30.645,15.842l1.481-0.737c-0.306-0.562-0.683-0.751-0.992-0.925c-0.32-0.166-0.614-0.252-0.894-0.323
				c-0.557-0.13-1.049-0.155-1.466-0.131c-0.417,0.026-0.754,0.104-0.991,0.221c-0.24,0.114-0.365,0.282-0.312,0.393
				c0.054,0.116,0.153,0.204,0.337,0.305c0.186,0.1,0.462,0.211,0.795,0.338c0.333,0.127,0.729,0.271,1.126,0.446
				c0.193,0.089,0.396,0.184,0.55,0.287c0.087,0.049,0.139,0.101,0.195,0.142c0.013,0.02,0.027,0.035,0.046,0.048
				c-0.001,0.003-0.005,0.003-0.005,0.003C-30.766,15.901-30.69,15.857-30.645,15.842z"/>
		</g>
	</g>
</g>
<g display="none">
	<g display="inline">
		<g>
			<path d="M-33.448,16.608l1.655-0.525c-0.167-0.502-0.504-0.805-0.787-0.997c-0.293-0.199-0.565-0.29-0.821-0.369
				c-0.508-0.137-0.946-0.15-1.313-0.12c-0.723,0.058-1.192,0.351-1.133,0.598c0.054,0.238,0.395,0.414,0.963,0.658
				c0.277,0.119,0.604,0.253,0.904,0.411c0.142,0.082,0.292,0.166,0.375,0.248c0.055,0.038,0.071,0.075,0.09,0.096
				c0,0.01,0.013,0.017,0.013,0.021c0,0-0.01,0.003,0.001-0.002C-33.485,16.619-33.468,16.613-33.448,16.608z"/>
		</g>
	</g>
</g>
<g display="none">
	<g display="inline">
		<g>
			<path d="M-37.812,18.313l1.334-1.062c-0.391-0.46-0.778-0.583-1.107-0.697c-0.337-0.107-0.635-0.14-0.918-0.163
				c-0.561-0.031-1.043,0.029-1.443,0.125c-0.399,0.099-0.713,0.235-0.922,0.395c-0.214,0.157-0.301,0.348-0.225,0.445
				c0.078,0.101,0.189,0.169,0.382,0.235c0.194,0.063,0.478,0.125,0.819,0.191c0.34,0.067,0.745,0.141,1.155,0.243
				c0.199,0.055,0.411,0.112,0.576,0.186c0.093,0.032,0.153,0.075,0.214,0.105c0.018,0.017,0.038,0.031,0.059,0.042
				c-0.001,0.004,0,0.008,0,0.008s-0.001,0.003,0.006-0.002C-37.86,18.347-37.836,18.33-37.812,18.313z"/>
		</g>
	</g>
</g>
<g display="none">
	<g display="inline">
		<g>
			<path d="M-39.721,19.151l1.402-1.116c-0.094-0.104-0.198-0.203-0.305-0.29c-0.109-0.077-0.225-0.134-0.34-0.19
				c-0.219-0.086-0.442-0.133-0.621-0.139c-0.377-0.024-0.668,0.039-0.926,0.111c-0.513,0.15-0.894,0.367-1.195,0.577
				c-0.593,0.424-0.849,0.853-0.717,1.061c0.132,0.21,0.573,0.197,1.204,0.109c0.312-0.042,0.675-0.103,1.022-0.126
				c0.171-0.012,0.342-0.01,0.44,0.016C-39.641,19.186-39.668,19.214-39.721,19.151z"/>
		</g>
	</g>
</g>
<g display="none">
	<g display="inline">
		<g>
			<path d="M-43.748,25.599l1.374-1.146c-0.264-0.34-0.746-0.567-1.11-0.594c-0.379-0.043-0.659,0.029-0.904,0.103
				c-0.478,0.163-0.799,0.391-1.045,0.605c-0.485,0.437-0.645,0.825-0.519,1.032c0.13,0.215,0.557,0.193,1.095,0.097
				c0.267-0.046,0.574-0.108,0.838-0.124c0.125-0.005,0.249,0,0.28,0.024C-43.696,25.627-43.763,25.59-43.748,25.599z"/>
		</g>
	</g>
</g>
<g display="none">
	<g display="inline">
		<g>
			<path d="M-40.302,20.952l1.604-0.799c-0.098-0.162-0.227-0.345-0.354-0.451c-0.121-0.093-0.266-0.204-0.382-0.255
				c-0.115-0.05-0.236-0.102-0.348-0.138c-0.104-0.024-0.207-0.048-0.309-0.072c-0.391-0.064-0.734-0.068-1.044-0.042
				c-0.623,0.05-1.142,0.187-1.567,0.347c-0.425,0.162-0.753,0.352-0.96,0.543c-0.214,0.193-0.289,0.401-0.201,0.488
				c0.09,0.091,0.221,0.136,0.445,0.166c0.23,0.029,0.553,0.04,0.948,0.049c0.393,0.01,0.861,0.016,1.34,0.059
				c0.24,0.018,0.476,0.058,0.674,0.107c0.043,0.015,0.086,0.029,0.13,0.041c0.031,0.015,0.05,0.03,0.077,0.039
				c0.037,0.004-0.047,0.05,0.101-0.103l0.041-0.038c-0.27,0.281-0.075,0.078-0.135,0.141l-0.001,0l-0.001-0.001l-0.004-0.001
				l-0.006-0.003c-0.008-0.005-0.016-0.012-0.022-0.02C-40.292,20.992-40.3,20.972-40.302,20.952z"/>
		</g>
	</g>
</g>
<g display="none">
	<g display="inline">
		<g>
			<path d="M-40.916,22.553l1.402-1.116c-0.13-0.139-0.311-0.307-0.445-0.374c-0.129-0.065-0.285-0.149-0.398-0.179
				c-0.117-0.034-0.236-0.069-0.349-0.094c-0.105-0.015-0.209-0.031-0.313-0.046c-0.402-0.042-0.76-0.035-1.091-0.006
				c-0.663,0.058-1.228,0.189-1.693,0.34c-0.465,0.152-0.828,0.326-1.068,0.505c-0.241,0.173-0.358,0.373-0.282,0.472
				c0.077,0.102,0.21,0.16,0.468,0.2c0.256,0.039,0.625,0.061,1.071,0.076c0.445,0.016,0.973,0.023,1.529,0.058
				c0.277,0.016,0.56,0.046,0.815,0.092l0.182,0.038l0.14,0.047c0.053,0.013,0.042,0.03,0.072,0.034
				C-40.854,22.608-40.923,22.584-40.916,22.553z"/>
		</g>
	</g>
</g>
<g display="none">
	<g display="inline">
		<g>
			<path d="M-42.987,23.904l1.402-1.116c-0.094-0.104-0.198-0.203-0.305-0.291c-0.109-0.076-0.225-0.133-0.34-0.19
				c-0.219-0.086-0.442-0.133-0.621-0.139c-0.377-0.024-0.668,0.039-0.926,0.111c-0.513,0.15-0.894,0.366-1.195,0.577
				c-0.593,0.424-0.849,0.853-0.717,1.061c0.132,0.21,0.573,0.197,1.204,0.108c0.312-0.042,0.675-0.103,1.022-0.126
				c0.171-0.012,0.342-0.009,0.44,0.016C-42.908,23.939-42.935,23.967-42.987,23.904z"/>
		</g>
	</g>
</g>
<g display="none">
	<g display="inline">
		<g>
			<path d="M-30.061,27.373l-0.162-1.785c-0.445,0.044-0.797,0.214-1.079,0.399c-0.285,0.187-0.5,0.403-0.675,0.621
				c-0.35,0.437-0.547,0.885-0.638,1.284c-0.093,0.399-0.078,0.748,0.006,0.982c0.08,0.234,0.212,0.343,0.331,0.334
				c0.256-0.03,0.436-0.368,0.817-0.792c0.184-0.214,0.417-0.458,0.68-0.668C-30.527,27.529-30.206,27.383-30.061,27.373z"/>
		</g>
	</g>
</g>
<g display="none">
	<g display="inline">
		<g>
			<path d="M-30.516,22.305l-0.162-1.785c-0.187,0.033-0.427,0.091-0.556,0.166c-0.126,0.071-0.282,0.155-0.369,0.234
				c-0.093,0.079-0.188,0.16-0.271,0.24l-0.21,0.235c-0.256,0.313-0.447,0.615-0.605,0.908c-0.316,0.585-0.517,1.129-0.647,1.601
				c-0.128,0.473-0.183,0.871-0.165,1.17c0.012,0.296,0.114,0.504,0.239,0.495c0.126-0.008,0.249-0.088,0.425-0.282
				c0.173-0.192,0.395-0.488,0.651-0.853c0.258-0.363,0.555-0.8,0.89-1.245c0.166-0.223,0.347-0.442,0.525-0.63l0.131-0.13
				l0.116-0.092c0.041-0.037,0.048-0.019,0.068-0.042C-30.436,22.284-30.494,22.328-30.516,22.305z"/>
		</g>
	</g>
</g>
<g display="none">
	<g display="inline">
		<g>
			<path d="M-31.55,25.802l-0.162-1.785c-0.138,0.021-0.278,0.054-0.41,0.095c-0.123,0.048-0.235,0.113-0.345,0.18
				c-0.193,0.136-0.354,0.295-0.458,0.442c-0.227,0.302-0.335,0.579-0.417,0.834c-0.157,0.511-0.186,0.948-0.175,1.315
				c0.028,0.729,0.246,1.178,0.492,1.182c0.248,0.005,0.479-0.371,0.753-0.946c0.136-0.283,0.285-0.621,0.457-0.923
				c0.083-0.149,0.18-0.291,0.255-0.358C-31.477,25.755-31.469,25.792-31.55,25.802z"/>
		</g>
	</g>
</g>
<g display="none">
	<g display="inline">
		<g>
			<path d="M-29.154,30.876l0.505-1.719c-0.43-0.122-0.82-0.094-1.15-0.024c-0.334,0.07-0.613,0.191-0.856,0.33
				c-0.487,0.278-0.833,0.622-1.066,0.96c-0.232,0.337-0.346,0.667-0.354,0.916c-0.012,0.248,0.072,0.397,0.185,0.433
				c0.249,0.066,0.541-0.182,1.051-0.437c0.25-0.132,0.556-0.273,0.878-0.373C-29.646,30.851-29.292,30.833-29.154,30.876z"/>
		</g>
	</g>
</g>
<g display="none">
	<g display="inline">
		<g>
			<path d="M-29.963,29.307l0.752-1.626c-0.131-0.051-0.268-0.092-0.403-0.123c-0.131-0.02-0.26-0.019-0.389-0.017
				c-0.235,0.022-0.455,0.079-0.617,0.155c-0.348,0.148-0.58,0.334-0.779,0.514c-0.391,0.365-0.634,0.729-0.808,1.052
				c-0.34,0.646-0.375,1.144-0.164,1.27c0.212,0.128,0.601-0.082,1.125-0.444c0.259-0.177,0.556-0.396,0.856-0.572
				c0.147-0.087,0.3-0.162,0.4-0.183C-29.875,29.302-29.888,29.339-29.963,29.307z"/>
		</g>
	</g>
</g>
<g display="none">
	<g display="inline">
		<g>
			<path d="M-27.896,33.111l0.482-1.726c-0.498-0.131-0.881-0.074-1.223-0.008c-0.342,0.072-0.636,0.185-0.899,0.314
				c-0.526,0.259-0.936,0.583-1.232,0.916c-0.296,0.332-0.471,0.683-0.514,0.957c-0.049,0.273,0.039,0.447,0.15,0.478
				c0.253,0.052,0.541-0.185,1.144-0.437c0.296-0.129,0.662-0.27,1.059-0.379c0.197-0.055,0.404-0.1,0.595-0.12
				C-28.147,33.083-27.956,33.09-27.896,33.111z"/>
		</g>
	</g>
</g>
<g display="none">
	<g display="inline">
		<g>
			<path d="M-28.076,34.766l0.482-1.725c-0.467-0.122-0.818-0.108-1.161-0.087c-0.34,0.024-0.649,0.084-0.939,0.159
				c-0.578,0.155-1.073,0.383-1.461,0.656c-0.386,0.268-0.664,0.603-0.763,0.896c-0.053,0.143-0.058,0.271-0.032,0.363
				c0.023,0.089,0.067,0.136,0.126,0.154c0.059,0.02,0.13,0.011,0.203-0.007c0.056-0.017,0.138-0.039,0.242-0.069
				c0.183-0.053,0.428-0.125,0.767-0.194c0.336-0.069,0.754-0.136,1.217-0.176c0.23-0.019,0.473-0.034,0.709-0.029
				C-28.456,34.709-28.201,34.729-28.076,34.766z"/>
		</g>
	</g>
</g>
<g display="none">
	<g display="inline">
		<g>
			<path d="M-24.528,37.78l-0.257-1.773c-0.441,0.067-0.785,0.256-1.056,0.456c-0.274,0.203-0.478,0.43-0.641,0.656
				c-0.327,0.455-0.499,0.912-0.569,1.316c-0.071,0.403-0.038,0.751,0.058,0.98c0.092,0.23,0.23,0.33,0.348,0.316
				c0.254-0.045,0.416-0.392,0.774-0.836c0.172-0.225,0.392-0.479,0.643-0.704C-24.985,37.962-24.672,37.799-24.528,37.78z"/>
		</g>
	</g>
</g>
<g display="none">
	<g display="inline">
		<g>
			<path d="M-23.8,38.216l-0.257-1.774c-0.442,0.068-0.785,0.257-1.056,0.457c-0.274,0.203-0.478,0.43-0.641,0.656
				c-0.327,0.455-0.499,0.912-0.569,1.316c-0.071,0.402-0.038,0.75,0.058,0.98c0.092,0.23,0.23,0.33,0.348,0.315
				c0.254-0.044,0.416-0.391,0.774-0.835c0.172-0.225,0.392-0.48,0.643-0.704C-24.257,38.396-23.943,38.232-23.8,38.216z"/>
		</g>
	</g>
</g>
<g display="none">
	<g display="inline">
		<g>
			<path d="M-22.979,38.382l-0.257-1.773c-0.442,0.067-0.785,0.256-1.056,0.456c-0.274,0.203-0.478,0.43-0.641,0.656
				c-0.326,0.455-0.499,0.912-0.568,1.316c-0.071,0.403-0.038,0.751,0.058,0.98c0.092,0.23,0.23,0.33,0.348,0.316
				c0.254-0.044,0.416-0.391,0.773-0.836c0.172-0.225,0.392-0.479,0.644-0.703C-23.437,38.563-23.123,38.4-22.979,38.382z"/>
		</g>
	</g>
</g>
<g display="none">
	<g display="inline">
		<g>
			<path d="M-21.981,38.602l-0.257-1.773c-0.442,0.068-0.785,0.256-1.056,0.457c-0.274,0.203-0.478,0.43-0.641,0.656
				c-0.327,0.455-0.499,0.912-0.569,1.316c-0.071,0.402-0.037,0.75,0.059,0.98c0.091,0.229,0.23,0.33,0.348,0.315
				c0.254-0.044,0.416-0.392,0.773-0.835c0.172-0.225,0.392-0.48,0.643-0.704C-22.439,38.783-22.125,38.619-21.981,38.602z"/>
		</g>
	</g>
</g>
<g display="none">
	<g display="inline">
		<g>
			<path d="M-22.175,38.602l-0.257-1.773c-0.41,0.054-0.846,0.297-1.094,0.603c-0.253,0.303-0.371,0.616-0.43,0.877
				c-0.114,0.532-0.061,0.94,0.01,1.272c0.157,0.659,0.439,0.997,0.679,0.975c0.25-0.023,0.42-0.419,0.588-0.952
				c0.085-0.261,0.177-0.569,0.296-0.792c0.057-0.113,0.125-0.182,0.156-0.199C-22.191,38.598-22.216,38.617-22.175,38.602z"/>
		</g>
	</g>
</g>
<g display="none">
	<g display="inline">
		<g>
			<path d="M-29.259,31.871l0.423-1.741c-0.138-0.025-0.28-0.039-0.418-0.043c-0.133,0.006-0.259,0.031-0.385,0.058
				c-0.226,0.066-0.431,0.166-0.576,0.271c-0.312,0.212-0.505,0.439-0.665,0.655c-0.313,0.434-0.481,0.837-0.59,1.188
				c-0.208,0.699-0.148,1.194,0.083,1.278c0.233,0.084,0.574-0.197,1.019-0.652c0.221-0.225,0.47-0.496,0.73-0.726
				c0.127-0.114,0.264-0.217,0.357-0.257C-29.174,31.85-29.179,31.888-29.259,31.871z"/>
		</g>
	</g>
</g>
<g display="none">
	<g display="inline">
		<g>
			<path d="M-26.525,36.636l-0.162-1.785c-0.445,0.044-0.797,0.214-1.078,0.399c-0.285,0.188-0.5,0.404-0.675,0.621
				c-0.35,0.438-0.547,0.885-0.639,1.284c-0.093,0.399-0.077,0.747,0.006,0.981c0.079,0.235,0.212,0.344,0.331,0.335
				c0.256-0.03,0.436-0.368,0.817-0.792c0.184-0.215,0.417-0.459,0.68-0.67C-26.991,36.792-26.669,36.646-26.525,36.636z"/>
		</g>
	</g>
</g>
<g display="none">
	<g display="inline">
		<g>
			<path d="M-28.015,35.064l-0.162-1.785c-0.138,0.021-0.278,0.055-0.41,0.096c-0.124,0.049-0.235,0.113-0.346,0.18
				c-0.192,0.136-0.354,0.295-0.457,0.441c-0.228,0.303-0.335,0.58-0.417,0.836c-0.157,0.511-0.186,0.947-0.175,1.314
				c0.028,0.729,0.246,1.178,0.492,1.182c0.248,0.006,0.479-0.371,0.753-0.945c0.136-0.283,0.285-0.621,0.457-0.924
				c0.083-0.148,0.18-0.29,0.255-0.357C-27.941,35.018-27.933,35.055-28.015,35.064z"/>
		</g>
	</g>
</g>
<g display="none">
	<g display="inline">
		<g>
			<path d="M-44.536,28.677l1.374-1.146c-0.264-0.34-0.746-0.567-1.109-0.594c-0.379-0.043-0.66,0.029-0.905,0.103
				c-0.478,0.163-0.799,0.391-1.045,0.605c-0.485,0.437-0.645,0.825-0.519,1.032c0.13,0.215,0.557,0.193,1.095,0.097
				c0.267-0.045,0.574-0.108,0.838-0.124c0.125-0.005,0.249,0,0.281,0.024C-44.484,28.706-44.552,28.669-44.536,28.677z"/>
		</g>
	</g>
</g>
<g display="none">
	<g display="inline">
		<g>
			<path d="M-43.775,26.982l1.402-1.116c-0.094-0.104-0.198-0.203-0.305-0.291c-0.108-0.076-0.224-0.133-0.34-0.19
				c-0.22-0.086-0.442-0.133-0.621-0.139c-0.377-0.024-0.668,0.039-0.927,0.111c-0.513,0.15-0.894,0.367-1.195,0.577
				c-0.593,0.424-0.849,0.853-0.717,1.061c0.132,0.21,0.573,0.197,1.205,0.108c0.312-0.042,0.675-0.103,1.022-0.126
				c0.17-0.012,0.341-0.009,0.439,0.016C-43.696,27.017-43.723,27.045-43.775,26.982z"/>
		</g>
	</g>
</g>
<g display="none">
	<g display="inline">
		<g>
			<path d="M-44.563,31.571l0.724-1.635c-0.388-0.188-0.92-0.178-1.258-0.041c-0.359,0.129-0.578,0.318-0.765,0.493
				c-0.356,0.358-0.542,0.705-0.669,1.005c-0.241,0.606-0.212,1.025-0.007,1.156c0.212,0.135,0.585-0.074,1.024-0.399
				c0.218-0.159,0.466-0.351,0.696-0.483c0.11-0.06,0.223-0.11,0.263-0.102C-44.504,31.574-44.581,31.571-44.563,31.571z"/>
		</g>
	</g>
</g>
<g display="none">
	<g display="inline">
		<g>
			<path d="M-43.988,32.658l0.761-1.622c-0.509-0.241-1.053-0.167-1.401-0.024c-0.363,0.145-0.632,0.341-0.838,0.546
				c-0.422,0.408-0.651,0.85-0.778,1.25c-0.125,0.399-0.128,0.764-0.043,1.014c0.08,0.247,0.228,0.352,0.342,0.331
				c0.253-0.061,0.411-0.36,0.817-0.745c0.195-0.191,0.442-0.416,0.713-0.576c0.131-0.088,0.27-0.139,0.362-0.161
				C-43.951,32.648-43.954,32.675-43.988,32.658z"/>
		</g>
	</g>
</g>
<g display="none">
	<g display="inline">
		<g>
			<path d="M-43.316,33.843l0.762-1.622c-0.509-0.241-1.053-0.167-1.401-0.024c-0.363,0.144-0.632,0.34-0.838,0.545
				c-0.422,0.408-0.651,0.85-0.778,1.25c-0.124,0.4-0.128,0.766-0.043,1.014c0.08,0.248,0.228,0.353,0.342,0.332
				c0.253-0.061,0.411-0.361,0.817-0.746c0.195-0.19,0.442-0.416,0.713-0.576c0.131-0.088,0.27-0.139,0.362-0.16
				C-43.278,33.833-43.281,33.859-43.316,33.843z"/>
		</g>
	</g>
</g>
<g display="none">
	<g display="inline">
		<g>
			<path d="M-42.87,35.449l0.627-1.667c-0.137-0.036-0.268-0.08-0.408-0.108c-0.151-0.008-0.316-0.01-0.455,0.013
				c-0.127,0.029-0.26,0.063-0.375,0.106c-0.102,0.047-0.201,0.098-0.296,0.15c-0.344,0.218-0.578,0.461-0.765,0.699
				c-0.371,0.479-0.563,0.954-0.672,1.376c-0.105,0.421-0.103,0.796-0.021,1.058c0.076,0.261,0.227,0.383,0.34,0.359
				c0.252-0.061,0.412-0.388,0.835-0.892c0.203-0.246,0.454-0.545,0.741-0.792c0.141-0.123,0.293-0.225,0.406-0.281
				c0.024-0.004,0.045-0.012,0.066-0.023c0.008-0.002,0.009,0.004,0.012,0.004l0.003-0.001l0.002-0.001l-0.005-0.04l-0.001-0.021
				l0-0.005v-0.003c-0.002-0.016,0.017,0.123,0.009,0.064l-0.001,0.002l-0.005,0.003l-0.011,0.005
				c-0.008,0.001-0.017-0.001-0.023-0.006C-42.872,35.447-42.87,35.449-42.87,35.449z"/>
		</g>
	</g>
</g>
<g display="none">
	<g display="inline">
		<g>
			<path d="M-39.708,28.332l0.761,1.622c-0.034,0.017-0.038-0.01,0.065,0.013c0.092,0.022,0.231,0.073,0.362,0.161
				c0.271,0.161,0.519,0.386,0.713,0.577c0.406,0.384,0.563,0.685,0.817,0.746c0.114,0.021,0.262-0.084,0.342-0.332
				c0.085-0.248,0.082-0.614-0.043-1.014c-0.127-0.4-0.356-0.842-0.778-1.25c-0.206-0.205-0.475-0.401-0.838-0.546
				C-38.656,28.166-39.2,28.091-39.708,28.332z"/>
		</g>
	</g>
</g>
<g display="none">
	<g display="inline">
		<g>
			<path d="M-38.913,27.191l0.761,1.622c0.147-0.068,0.376-0.107,0.605-0.091c0.227,0.019,0.434,0.072,0.596,0.13
				c0.156,0.061,0.294,0.13,0.407,0.225c0.117,0.09,0.222,0.191,0.348,0.207c0.116,0.017,0.258-0.061,0.345-0.288
				c0.093-0.224,0.068-0.614-0.153-0.986c-0.22-0.366-0.607-0.693-1.109-0.881C-37.608,26.95-38.257,26.895-38.913,27.191z"/>
		</g>
	</g>
</g>
<g display="none">
	<g display="inline">
		<g>
			<path d="M-36.236,23.54l0.441,1.737c0.157-0.039,0.389-0.033,0.611,0.025c0.219,0.061,0.413,0.152,0.561,0.24
				c0.142,0.089,0.265,0.184,0.357,0.297c0.098,0.111,0.182,0.23,0.303,0.27c0.111,0.039,0.265-0.011,0.393-0.217
				c0.134-0.202,0.183-0.589,0.037-0.997c-0.146-0.401-0.466-0.796-0.922-1.075C-34.91,23.55-35.536,23.373-36.236,23.54z"/>
		</g>
	</g>
</g>
<g display="none">
	<g display="inline">
		<g>
			<path d="M-38.536,25.81l0.761,1.622c0.147-0.068,0.376-0.107,0.605-0.091c0.227,0.019,0.434,0.072,0.596,0.13
				c0.156,0.061,0.294,0.13,0.407,0.224c0.117,0.09,0.222,0.191,0.348,0.208c0.116,0.017,0.258-0.061,0.345-0.288
				c0.093-0.224,0.068-0.614-0.153-0.986c-0.22-0.366-0.608-0.693-1.109-0.881C-37.231,25.568-37.879,25.513-38.536,25.81z"/>
		</g>
	</g>
</g>
<g display="none">
	<g display="inline">
		<g>
			<path d="M-37.672,24.828l0.761,1.622c0.147-0.067,0.376-0.106,0.605-0.091c0.227,0.019,0.435,0.072,0.597,0.13
				c0.156,0.061,0.294,0.13,0.407,0.224c0.117,0.09,0.222,0.191,0.348,0.208c0.116,0.017,0.258-0.061,0.345-0.288
				c0.093-0.225,0.068-0.614-0.152-0.986c-0.22-0.367-0.608-0.694-1.109-0.881C-36.367,24.587-37.016,24.531-37.672,24.828z"/>
		</g>
	</g>
</g>
<g display="none">
	<g display="inline">
		<g>
			<path d="M-40.02,29.894l0.628,1.667c0,0,0.002-0.002-0.002,0c-0.007,0.005-0.015,0.007-0.023,0.006l-0.011-0.004l-0.005-0.003
				l-0.001-0.001c-0.008,0.059,0.011-0.081,0.008-0.064v0.002l0,0.005l-0.001,0.021l-0.004,0.04l0.001,0.001l0.003,0.001
				c0.004,0,0.004-0.006,0.012-0.004c0.021,0.011,0.042,0.019,0.066,0.024c0.112,0.056,0.265,0.157,0.405,0.281
				c0.287,0.247,0.538,0.545,0.741,0.792c0.424,0.504,0.583,0.832,0.835,0.893c0.114,0.021,0.265-0.1,0.34-0.359
				c0.082-0.263,0.083-0.639-0.021-1.059c-0.108-0.422-0.301-0.897-0.672-1.375c-0.187-0.238-0.421-0.482-0.765-0.7
				c-0.096-0.053-0.195-0.103-0.296-0.15c-0.115-0.043-0.248-0.078-0.375-0.106c-0.138-0.022-0.303-0.021-0.454-0.013
				C-39.751,29.813-39.883,29.857-40.02,29.894z"/>
		</g>
	</g>
</g>
<g display="none">
	<g display="inline">
		<g>
			<path d="M-40.608,31.8l0.762,1.622c-0.068,0.02,0.023-0.018,0.173,0.025c0.144,0.032,0.322,0.096,0.489,0.184
				c0.34,0.168,0.651,0.381,0.893,0.568c0.498,0.374,0.661,0.645,0.914,0.718c0.061,0.008,0.122-0.014,0.181-0.077
				c0.061-0.064,0.119-0.174,0.138-0.312c0.053-0.285-0.016-0.689-0.219-1.09c-0.204-0.403-0.525-0.821-1.004-1.19
				c-0.238-0.186-0.523-0.355-0.887-0.481C-39.519,31.651-40.018,31.539-40.608,31.8z"/>
		</g>
	</g>
</g>
<g display="none">
	<g display="inline">
		<g>
			<path d="M-30.031,37.665l0.761,1.622c-0.067,0.02,0.023-0.017,0.173,0.025c0.144,0.033,0.323,0.096,0.49,0.184
				c0.34,0.168,0.651,0.381,0.893,0.568c0.498,0.375,0.66,0.645,0.913,0.718c0.062,0.009,0.122-0.013,0.181-0.077
				c0.061-0.064,0.119-0.174,0.138-0.312c0.053-0.285-0.016-0.688-0.219-1.09c-0.204-0.402-0.525-0.82-1.004-1.189
				c-0.237-0.187-0.523-0.356-0.887-0.482C-28.943,37.517-29.44,37.404-30.031,37.665z"/>
		</g>
	</g>
</g>
<g display="none">
	<g display="inline">
		<g>
			<path d="M-30.249,39.142l0.761,1.622c-0.067,0.019,0.024-0.018,0.173,0.025c0.144,0.032,0.322,0.096,0.489,0.184
				c0.34,0.167,0.651,0.381,0.893,0.567c0.498,0.375,0.661,0.645,0.913,0.718c0.062,0.009,0.122-0.013,0.181-0.076
				c0.061-0.064,0.119-0.175,0.138-0.313c0.053-0.284-0.016-0.688-0.219-1.089c-0.204-0.403-0.525-0.821-1.004-1.19
				c-0.238-0.187-0.523-0.356-0.887-0.481C-29.161,38.992-29.658,38.881-30.249,39.142z"/>
		</g>
	</g>
</g>
<g display="none">
	<g display="inline">
		<g>
			<path d="M-29.514,41.207l0.489,1.725c0.217-0.062,0.442-0.109,0.75-0.105c0.297-0.002,0.604,0.012,0.786-0.16
				c0.175-0.162,0.204-0.506-0.099-0.904c-0.151-0.195-0.399-0.396-0.741-0.52C-28.667,41.119-29.101,41.088-29.514,41.207z"/>
		</g>
	</g>
</g>
<g display="none">
	<g display="inline">
		<g>
			<path d="M-41.199,32.221l0.761,1.622c0.056-0.022,0.105-0.039,0.209-0.035c0.101,0.005,0.235,0.033,0.375,0.086
				c0.283,0.11,0.57,0.287,0.813,0.446c0.49,0.324,0.842,0.593,1.072,0.485c0.216-0.096,0.263-0.613-0.111-1.31
				c-0.19-0.343-0.481-0.728-0.962-1.06c-0.244-0.162-0.544-0.31-0.917-0.383C-40.326,31.998-40.792,32.026-41.199,32.221z"/>
		</g>
	</g>
</g>
<g display="none">
	<g display="inline">
		<g>
			<path d="M-40.507,34.318l0.761,1.623c-0.034,0.017-0.037-0.011,0.065,0.012c0.092,0.023,0.231,0.073,0.362,0.161
				c0.27,0.161,0.519,0.386,0.712,0.577c0.406,0.384,0.563,0.684,0.817,0.745c0.115,0.021,0.263-0.085,0.342-0.332
				c0.085-0.248,0.082-0.614-0.043-1.014c-0.127-0.4-0.356-0.843-0.778-1.249c-0.206-0.205-0.475-0.402-0.838-0.547
				C-39.455,34.152-39.999,34.078-40.507,34.318z"/>
		</g>
	</g>
</g>
<g display="none">
	<g display="inline">
		<g>
			<path d="M-40.882,36.925l0.762,1.622c0.475-0.223,0.92-0.35,1.195-0.422c0.14-0.038,0.253-0.074,0.383-0.086
				c0.13-0.015,0.261,0.004,0.378-0.045c0.108-0.043,0.202-0.172,0.167-0.391c-0.03-0.217-0.223-0.5-0.53-0.682
				C-39.143,36.545-40.064,36.542-40.882,36.925z"/>
		</g>
	</g>
</g>
<g display="none">
	<g display="inline">
		<g>
			<path d="M-41.946,36.576l0.762-1.621c-0.509-0.241-1.053-0.166-1.401-0.024c-0.363,0.145-0.632,0.341-0.838,0.546
				c-0.422,0.407-0.651,0.85-0.778,1.25c-0.124,0.399-0.128,0.765-0.043,1.014c0.08,0.248,0.228,0.352,0.342,0.332
				c0.253-0.062,0.411-0.361,0.817-0.746c0.195-0.191,0.442-0.416,0.713-0.576c0.131-0.088,0.27-0.139,0.362-0.161
				C-41.908,36.566-41.911,36.594-41.946,36.576z"/>
		</g>
	</g>
</g>
<g display="none">
	<g display="inline">
		<g>
			<path d="M-40.875,37.874l0.728-1.55c-0.557-0.248-1.037-0.169-1.39-0.076c-0.363,0.104-0.655,0.252-0.901,0.418
				c-0.496,0.328-0.843,0.707-1.082,1.071c-0.237,0.364-0.356,0.726-0.363,0.998c-0.013,0.272,0.096,0.435,0.211,0.448
				c0.256,0.018,0.514-0.236,1.069-0.57c0.271-0.167,0.606-0.357,0.963-0.502c0.176-0.077,0.361-0.13,0.512-0.155
				c0.079-0.017,0.135-0.011,0.183-0.015c0.014,0.008,0.025,0.01,0.04,0.006c0,0.004-0.003,0.006-0.003,0.006
				C-40.902,37.93-40.891,37.901-40.875,37.874z"/>
		</g>
	</g>
</g>
<g display="none">
	<g display="inline">
		<g>
			<path d="M-40.133,38.523l0.728-1.549c-0.557-0.25-1.037-0.17-1.39-0.076c-0.363,0.102-0.655,0.252-0.901,0.416
				c-0.496,0.328-0.843,0.707-1.082,1.072c-0.237,0.364-0.356,0.725-0.363,0.998c-0.012,0.271,0.096,0.436,0.211,0.448
				c0.256,0.019,0.514-0.235,1.069-0.571c0.271-0.166,0.606-0.356,0.963-0.502c0.176-0.076,0.36-0.129,0.511-0.154
				c0.08-0.018,0.135-0.011,0.184-0.016c0.013,0.008,0.025,0.01,0.039,0.007c0,0.003-0.003,0.005-0.003,0.005
				C-40.16,38.578-40.148,38.55-40.133,38.523z"/>
		</g>
	</g>
</g>
<g display="none">
	<g display="inline">
		<g>
			<path d="M-43.548,30.516l0.692-1.653c-0.611-0.243-1.157-0.277-1.632-0.254c-0.477,0.026-0.888,0.119-1.223,0.246
				c-0.667,0.237-1.047,0.684-0.893,0.895c0.144,0.199,0.47,0.272,1.062,0.361c0.288,0.042,0.628,0.087,0.983,0.148
				C-44.207,30.316-43.831,30.402-43.548,30.516z"/>
		</g>
	</g>
</g>
<g display="none">
	<g display="inline">
		<g>
			<path d="M-28.786,36.412l0.691-1.653c-0.722-0.278-1.332-0.206-1.816-0.101c-0.49,0.111-0.88,0.295-1.186,0.482
				c-0.609,0.376-0.883,0.81-0.746,1.016c0.135,0.207,0.543,0.219,1.153,0.185c0.301-0.017,0.65-0.046,1-0.047
				C-29.34,36.287-28.983,36.33-28.786,36.412z"/>
		</g>
	</g>
</g>
<g display="none">
	<g display="inline">
		<g>
			<path d="M-29.089,37.875l0.692-1.653c-0.723-0.278-1.332-0.206-1.817-0.101c-0.49,0.111-0.88,0.295-1.186,0.482
				c-0.609,0.375-0.883,0.81-0.746,1.016c0.135,0.207,0.543,0.219,1.153,0.185c0.301-0.017,0.649-0.046,1-0.047
				C-29.643,37.75-29.286,37.793-29.089,37.875z"/>
		</g>
	</g>
</g>
<g display="none">
	<g display="inline">
		<g>
			<path d="M-29.444,39.158l0.692-1.654c-0.722-0.277-1.332-0.205-1.816-0.1c-0.491,0.111-0.88,0.295-1.187,0.482
				c-0.609,0.375-0.883,0.809-0.746,1.016c0.135,0.207,0.543,0.219,1.153,0.184c0.301-0.016,0.649-0.045,1-0.046
				C-29.998,39.033-29.642,39.076-29.444,39.158z"/>
		</g>
	</g>
</g>
<g display="none">
	<g display="inline">
		<g>
			<path d="M-29.717,40.565l0.691-1.653c-0.722-0.279-1.332-0.206-1.816-0.102c-0.491,0.113-0.88,0.295-1.187,0.483
				c-0.608,0.376-0.882,0.81-0.745,1.017c0.135,0.207,0.542,0.218,1.153,0.184c0.301-0.017,0.65-0.046,1-0.047
				C-30.271,40.439-29.914,40.482-29.717,40.565z"/>
		</g>
	</g>
</g>
<g display="none">
	<g display="inline">
		<g>
			<path d="M-29.663,41.768l0.691-1.652c-0.722-0.279-1.332-0.207-1.816-0.102c-0.491,0.112-0.88,0.295-1.187,0.482
				c-0.608,0.377-0.882,0.811-0.745,1.018c0.135,0.206,0.542,0.217,1.153,0.184c0.301-0.018,0.65-0.047,1-0.047
				C-30.217,41.643-29.86,41.686-29.663,41.768z"/>
		</g>
	</g>
</g>
<g display="none">
	<g display="inline">
		<g>
			<path d="M-28.964,42.389l0.692-1.652c-0.723-0.279-1.332-0.207-1.817-0.102c-0.49,0.112-0.88,0.295-1.186,0.482
				c-0.609,0.377-0.883,0.811-0.746,1.017c0.135,0.207,0.542,0.218,1.153,0.185c0.301-0.018,0.65-0.047,1-0.047
				C-29.519,42.264-29.162,42.307-28.964,42.389z"/>
		</g>
	</g>
</g>
<circle fill="#ECE7D8" cx="29.992" cy="11.885" r="0.898"/>
<g>
	<path fill="#ECE7D8" d="M54.682,29.261c0.514,0.101,0.924,0.124,1.048-0.102c0.12-0.216-0.032-0.622-0.497-1.078
		c-0.203-0.191-0.465-0.392-0.823-0.554c0.556,0.08,0.948,0.084,1.068-0.124c0.126-0.217-0.118-0.665-0.687-1.108
		c-0.079-0.061-0.166-0.122-0.259-0.182c0.212-0.001,0.374-0.045,0.442-0.17c0.121-0.216-0.032-0.622-0.496-1.078
		c-0.203-0.191-0.465-0.392-0.824-0.554c0.557,0.08,0.949,0.084,1.068-0.124c0.127-0.217-0.118-0.665-0.686-1.109
		c-0.265-0.202-0.6-0.407-1.032-0.561c0.307-0.015,0.565-0.036,0.757-0.067c0.247-0.042,0.375-0.104,0.448-0.209
		c0.072-0.104-0.04-0.312-0.271-0.493c-0.229-0.188-0.576-0.368-1.021-0.528c-0.349-0.123-0.757-0.232-1.22-0.304
		c0.352-0.009,0.642-0.021,0.852-0.05c0.214-0.031,0.339-0.078,0.425-0.173c0.084-0.09,0.014-0.308-0.191-0.51
		c-0.199-0.199-0.514-0.398-0.92-0.567c-0.201-0.083-0.424-0.159-0.67-0.222c0.198-0.012,0.338-0.063,0.4-0.174
		c0.127-0.217-0.117-0.665-0.686-1.108c-0.248-0.19-0.561-0.382-0.957-0.533c0.002,0,0.004-0.001,0.006-0.002
		c0.185-0.069,0.291-0.14,0.365-0.246c0.073-0.101-0.011-0.3-0.215-0.465c-0.201-0.167-0.5-0.309-0.883-0.413
		c-0.383-0.101-0.844-0.164-1.382-0.131c-0.22,0.019-0.455,0.056-0.706,0.125c0.201-0.075,0.37-0.139,0.493-0.195
		c0.163-0.079,0.265-0.143,0.355-0.237c0.088-0.085,0.009-0.316-0.231-0.479c-0.229-0.161-0.566-0.271-0.977-0.314
		c-0.411-0.042-0.895-0.022-1.436,0.113c-0.129,0.035-0.262,0.075-0.397,0.125c0.198-0.125,0.325-0.247,0.354-0.388
		c0.057-0.259-0.393-0.564-1.085-0.625c-0.351-0.032-0.771-0.017-1.257,0.126c-0.182,0.061-0.371,0.129-0.572,0.246
		c-0.01-0.002-0.019-0.005-0.027-0.008c0.279-0.117,0.514-0.223,0.674-0.316c0.177-0.105,0.271-0.197,0.324-0.318
		c0.051-0.116-0.069-0.292-0.3-0.41c-0.227-0.122-0.55-0.203-0.948-0.23c-0.051-0.003-0.105-0.002-0.158-0.004
		c0.055-0.038,0.105-0.079,0.149-0.127c0.084-0.085,0.035-0.302-0.184-0.474c-0.204-0.162-0.521-0.279-0.897-0.318
		c-0.066-0.007-0.137-0.008-0.207-0.011c0.078-0.004,0.159-0.007,0.231-0.011c0.592-0.026,0.956-0.07,1.087-0.283
		c0.137-0.22-0.184-0.681-0.81-1.007c-0.161-0.084-0.344-0.164-0.55-0.229c0.235,0.023,0.451,0.032,0.618,0.003
		c0.208-0.033,0.354-0.128,0.367-0.255c0.015-0.131-0.024-0.263-0.135-0.428c-0.113-0.166-0.298-0.359-0.56-0.565
		C40.795,9.628,40.466,9.409,40,9.243c-0.055-0.02-0.112-0.039-0.174-0.056C40,9.208,40.172,9.23,40.33,9.247
		c0.602,0.071,1.07,0.042,1.15-0.209c0.073-0.238-0.162-0.612-0.727-1.031c-0.055-0.039-0.116-0.079-0.178-0.119
		c0.125-0.049,0.223-0.098,0.297-0.182c0.081-0.089,0.045-0.291-0.13-0.479c-0.168-0.183-0.444-0.353-0.798-0.466
		c-0.018-0.005-0.037-0.009-0.054-0.014c0.035-0.036,0.07-0.071,0.099-0.113c0.072-0.098-0.01-0.306-0.252-0.439
		c-0.227-0.127-0.559-0.19-0.941-0.169c-0.09,0.005-0.185,0.016-0.281,0.03c0.146-0.104,0.238-0.209,0.263-0.329
		c0.056-0.259-0.394-0.564-1.085-0.625c-0.08-0.007-0.166-0.011-0.252-0.013c0.027-0.038,0.058-0.074,0.075-0.117
		c0.05-0.115-0.048-0.287-0.259-0.41c-0.205-0.123-0.503-0.206-0.867-0.228c-0.182-0.01-0.381-0.007-0.594,0.019
		c0.03-0.085,0.055-0.163,0.074-0.234c0.027-0.118,0.115-0.217,0.16-0.34c0.044-0.109-0.001-0.289-0.229-0.385
		c-0.207-0.086-0.498-0.05-0.764,0.067c-0.188-0.21-0.646-0.312-1.512-0.034c-0.027,0.014-0.055,0.03-0.081,0.044
		c0.019-0.189,0.015-0.347-0.031-0.495c-0.044-0.116-0.179-0.194-0.378-0.167c-0.193,0.026-0.43,0.147-0.653,0.351
		c-0.103,0.094-0.204,0.206-0.301,0.333c-0.041-0.022-0.082-0.045-0.122-0.066c-0.475-0.229-0.917-0.328-1.301-0.35
		c-0.383-0.021-0.715,0.042-0.941,0.169c-0.242,0.133-0.325,0.341-0.252,0.439c0.075,0.109,0.17,0.188,0.297,0.289
		c0.14,0.104,0.342,0.227,0.595,0.386c0.152,0.096,0.322,0.209,0.497,0.33c-0.006,0.001-0.012,0.003-0.018,0.005
		c-0.159-0.079-0.313-0.139-0.462-0.192c-0.484-0.153-0.915-0.188-1.279-0.167c-0.364,0.022-0.662,0.105-0.867,0.228
		c-0.211,0.123-0.31,0.294-0.259,0.41c0.018,0.042,0.048,0.079,0.076,0.116c-0.087,0.001-0.172,0.005-0.252,0.013
		c-0.692,0.061-1.141,0.366-1.085,0.625c0.025,0.12,0.117,0.225,0.263,0.329c-0.096-0.014-0.19-0.024-0.28-0.03
		c-0.383-0.021-0.715,0.042-0.942,0.169c-0.242,0.133-0.325,0.341-0.252,0.439c0.029,0.042,0.063,0.078,0.099,0.113
		c-0.018,0.005-0.037,0.009-0.053,0.014c-0.354,0.113-0.63,0.283-0.798,0.466c-0.175,0.188-0.21,0.39-0.129,0.478
		c0.073,0.083,0.172,0.133,0.296,0.182c-0.062,0.04-0.122,0.08-0.177,0.12c-0.564,0.418-0.8,0.792-0.726,1.031
		c0.079,0.251,0.549,0.28,1.15,0.209c0.158-0.017,0.329-0.039,0.503-0.06c-0.061,0.017-0.119,0.036-0.174,0.055
		c-0.465,0.167-0.794,0.386-1.06,0.589c-0.263,0.205-0.448,0.399-0.56,0.564c-0.11,0.165-0.149,0.296-0.135,0.428
		c0.013,0.127,0.16,0.222,0.367,0.255c0.167,0.029,0.383,0.021,0.617-0.003c-0.205,0.065-0.387,0.146-0.549,0.23
		c-0.626,0.326-0.946,0.786-0.81,1.006c0.13,0.212,0.495,0.256,1.087,0.283c0.072,0.003,0.153,0.007,0.23,0.011
		c-0.069,0.002-0.14,0.004-0.206,0.011c-0.377,0.039-0.694,0.156-0.898,0.318c-0.219,0.172-0.268,0.389-0.184,0.474
		c0.045,0.049,0.095,0.089,0.15,0.127c-0.053,0.001-0.107,0.001-0.158,0.004c-0.398,0.027-0.722,0.108-0.949,0.23
		c-0.229,0.119-0.35,0.294-0.299,0.41c0.052,0.121,0.146,0.213,0.323,0.318c0.161,0.094,0.395,0.199,0.674,0.316
		c-0.009,0.002-0.018,0.005-0.027,0.008c-0.201-0.116-0.391-0.185-0.573-0.246c-0.486-0.143-0.906-0.158-1.257-0.126
		c-0.692,0.061-1.142,0.366-1.085,0.625c0.029,0.142,0.158,0.263,0.354,0.388c-0.136-0.05-0.268-0.09-0.396-0.125
		c-0.542-0.136-1.025-0.155-1.436-0.113c-0.41,0.044-0.748,0.154-0.977,0.314c-0.241,0.163-0.32,0.395-0.231,0.479
		c0.091,0.095,0.192,0.158,0.355,0.237c0.124,0.056,0.292,0.12,0.493,0.196c-0.25-0.069-0.486-0.106-0.706-0.125
		c-0.538-0.033-0.998,0.03-1.381,0.131c-0.382,0.104-0.683,0.247-0.883,0.413c-0.204,0.164-0.288,0.364-0.215,0.465
		c0.074,0.106,0.181,0.177,0.365,0.246c0.001,0,0.004,0.001,0.005,0.002c-0.396,0.151-0.708,0.343-0.957,0.533
		c-0.567,0.443-0.813,0.892-0.686,1.109c0.063,0.11,0.203,0.161,0.401,0.173c-0.246,0.063-0.469,0.139-0.67,0.222
		c-0.406,0.169-0.721,0.368-0.919,0.567c-0.205,0.202-0.277,0.42-0.193,0.51c0.087,0.095,0.211,0.143,0.426,0.173
		c0.209,0.03,0.5,0.041,0.852,0.05c-0.463,0.071-0.871,0.181-1.219,0.304c-0.445,0.16-0.792,0.341-1.022,0.528
		c-0.23,0.181-0.343,0.39-0.27,0.493c0.073,0.105,0.201,0.167,0.449,0.209c0.191,0.032,0.45,0.053,0.756,0.067
		c-0.434,0.154-0.768,0.359-1.032,0.562c-0.568,0.443-0.813,0.891-0.686,1.108c0.12,0.208,0.512,0.203,1.068,0.124
		c-0.358,0.161-0.62,0.362-0.823,0.553c-0.464,0.456-0.617,0.862-0.497,1.078c0.069,0.124,0.229,0.168,0.442,0.17
		c-0.092,0.06-0.18,0.121-0.259,0.182c-0.568,0.443-0.813,0.891-0.686,1.108c0.12,0.208,0.513,0.203,1.068,0.124
		c-0.358,0.161-0.62,0.362-0.823,0.553c-0.464,0.456-0.617,0.862-0.497,1.078c0.125,0.225,0.534,0.203,1.048,0.102
		c0.256-0.048,0.55-0.113,0.803-0.129c0.001,0,0.002,0,0.003,0c-0.325,0.044-0.624,0.114-0.869,0.215
		c-0.638,0.248-1.003,0.715-0.855,0.935c0.138,0.208,0.45,0.284,1.017,0.377c0.004,0.001,0.011,0.001,0.016,0.002
		c-0.125,0.093-0.228,0.192-0.322,0.287c-0.341,0.374-0.52,0.736-0.641,1.051c-0.231,0.634-0.203,1.071-0.007,1.206
		c0.096,0.067,0.228,0.052,0.383-0.018c-0.039,0.098-0.073,0.195-0.1,0.289c-0.119,0.418-0.123,0.8-0.041,1.06
		c0.077,0.259,0.218,0.367,0.327,0.347c0.151-0.039,0.271-0.182,0.429-0.375c-0.025,0.068-0.052,0.139-0.072,0.207
		c-0.119,0.418-0.123,0.799-0.041,1.059c0.077,0.258,0.218,0.368,0.327,0.347c0.203-0.054,0.349-0.284,0.615-0.591
		c-0.295,0.453-0.464,0.901-0.558,1.303c-0.101,0.439-0.099,0.83-0.021,1.104c0.072,0.272,0.216,0.399,0.326,0.376
		c0.211-0.055,0.364-0.333,0.667-0.75c-0.001,0.002-0.002,0.006-0.003,0.008c-0.12,0.418-0.123,0.799-0.041,1.059
		c0.076,0.259,0.217,0.369,0.327,0.348c0.109-0.029,0.202-0.114,0.304-0.23c-0.183,0.34-0.279,0.668-0.285,0.924
		c-0.012,0.283,0.092,0.455,0.202,0.469c0.17,0.012,0.347-0.116,0.612-0.31c-0.065,0.19-0.101,0.368-0.104,0.519
		c-0.006,0.133,0.016,0.238,0.05,0.317c-0.418,0.311-0.696,0.831-0.696,1.425c0,0.849,0.562,1.551,1.301,1.697
		c0.175,0.851,0.869,1.487,1.701,1.487c0.271,0,0.524-0.072,0.752-0.192c0.319,0.479,0.779,0.786,1.295,0.786
		c0.964,0,1.746-1.052,1.746-2.35c0-0.491-0.112-0.946-0.303-1.323c0.512-0.332,0.858-0.936,0.858-1.633
		c0-1.052-0.782-1.905-1.747-1.905c-0.012,0-0.022,0.003-0.034,0.003c0.008-0.051,0.011-0.106,0.001-0.174
		c-0.02-0.158-0.121-0.351-0.279-0.518c0-0.031,0-0.062-0.001-0.092c0.186,0.226,0.313,0.392,0.479,0.436
		c0.11,0.021,0.251-0.089,0.327-0.348c0.082-0.26,0.078-0.641-0.041-1.059c-0.121-0.418-0.341-0.879-0.745-1.305
		c-0.004-0.006-0.009-0.01-0.013-0.014c0-0.008,0-0.017,0-0.025c0.117,0.051,0.217,0.064,0.299,0.022
		c0.068-0.033,0.117-0.118,0.141-0.238c0.167,0.17,0.282,0.288,0.425,0.333c0.059,0.009,0.117-0.014,0.173-0.08
		c0.058-0.066,0.113-0.182,0.132-0.326c0.048-0.279-0.012-0.666-0.178-1.057c0.081-0.052,0.161-0.162,0.208-0.343
		c0.079-0.274,0.08-0.666-0.021-1.104c-0.094-0.401-0.262-0.85-0.558-1.303c0.266,0.306,0.412,0.538,0.615,0.591
		c0.11,0.021,0.251-0.088,0.327-0.346c0.082-0.26,0.078-0.642-0.041-1.059c-0.122-0.418-0.341-0.879-0.745-1.306
		c-0.043-0.047-0.091-0.093-0.14-0.139c0.022,0,0.044-0.001,0.066,0c0.217,0.02,0.415,0.075,0.571,0.136
		c0.149,0.063,0.282,0.136,0.389,0.234c0.113,0.094,0.212,0.2,0.333,0.217c0.111,0.017,0.247-0.063,0.33-0.301
		c0.09-0.234,0.065-0.641-0.146-1.029c-0.096-0.174-0.229-0.338-0.386-0.485c0.084,0.045,0.163,0.094,0.229,0.155
		c0.113,0.094,0.213,0.2,0.333,0.217c0.112,0.018,0.248-0.063,0.33-0.301c0.09-0.234,0.066-0.641-0.146-1.029
		c-0.029-0.053-0.068-0.102-0.103-0.153c0.007,0.002,0.016,0.005,0.023,0.007c0.149,0.063,0.282,0.136,0.389,0.234
		c0.113,0.094,0.212,0.2,0.333,0.217c0.111,0.018,0.247-0.063,0.33-0.301c0.089-0.234,0.065-0.641-0.146-1.03
		c-0.052-0.095-0.115-0.187-0.186-0.275c0.119,0.052,0.229,0.108,0.319,0.166c0.136,0.093,0.253,0.191,0.341,0.31
		c0.094,0.116,0.174,0.24,0.29,0.282c0.106,0.041,0.253-0.011,0.376-0.227c0.078-0.129,0.12-0.332,0.113-0.564
		c0.029,0.097,0.066,0.167,0.113,0.201c-0.003,0.008-0.006,0.017-0.008,0.026c-0.15,0.534-0.177,0.991-0.167,1.374
		c0.027,0.761,0.235,1.231,0.471,1.235c0.157,0.003,0.307-0.169,0.466-0.46c-0.029,0.095-0.055,0.188-0.074,0.279
		c-0.088,0.417-0.074,0.781,0.006,1.026c0.076,0.246,0.203,0.358,0.317,0.349c0.045-0.005,0.086-0.033,0.128-0.059
		c-0.02,0.038-0.042,0.077-0.061,0.114c-0.325,0.674-0.359,1.194-0.157,1.326c0.143,0.094,0.37,0.012,0.666-0.176
		c-0.014,0.021-0.031,0.042-0.044,0.062c-0.223,0.352-0.332,0.696-0.34,0.956c-0.012,0.259,0.068,0.415,0.177,0.452
		c0.186,0.054,0.398-0.093,0.714-0.286c-0.143,0.285-0.242,0.554-0.311,0.797c-0.2,0.729-0.142,1.247,0.081,1.335
		c0.032,0.012,0.066,0.016,0.102,0.013c-0.001,0.005-0.003,0.012-0.004,0.017c-0.021,0.127-0.013,0.229,0.009,0.312
		c-0.308,0.262-0.533,0.565-0.617,0.839c-0.051,0.148-0.056,0.283-0.031,0.379c0.022,0.094,0.065,0.143,0.121,0.163
		c0.056,0.02,0.125,0.011,0.194-0.007c0.054-0.018,0.132-0.042,0.232-0.073c0.156-0.05,0.365-0.114,0.638-0.18
		c-0.133,0.068-0.259,0.14-0.369,0.214c-0.583,0.393-0.845,0.846-0.714,1.062c0.113,0.188,0.432,0.218,0.896,0.2
		c-0.176,0.083-0.333,0.174-0.472,0.267c-0.583,0.393-0.845,0.846-0.713,1.062c0.077,0.129,0.257,0.18,0.506,0.197
		c-0.045,0.027-0.091,0.055-0.132,0.082c-0.583,0.393-0.845,0.846-0.714,1.061c0.105,0.176,0.39,0.215,0.804,0.204
		c-0.126,0.066-0.246,0.134-0.352,0.205c-0.583,0.392-0.845,0.845-0.713,1.062c0.101,0.169,0.364,0.211,0.751,0.205
		c-0.572,0.391-0.83,0.838-0.7,1.052c0.101,0.168,0.362,0.211,0.746,0.206c-0.11,0.18-0.14,0.339-0.077,0.442
		c0.031,0.052,0.079,0.092,0.14,0.122c-1.05,0.115-1.935,0.414-2.46,0.82c-0.155-0.102-0.334-0.163-0.527-0.163
		c-0.568,0-1.029,0.503-1.029,1.124c0,0.061,0.008,0.119,0.017,0.178c-0.128,0.216-0.205,0.473-0.205,0.749
		c0,0.668,0.435,1.226,1.012,1.354c0.144,0.767,0.766,1.343,1.511,1.343c0.619,0,1.149-0.4,1.394-0.975
		c0.188,0.121,0.404,0.195,0.638,0.195c0.652,0,1.183-0.539,1.252-1.23c1.851-0.139,3.262-0.852,3.262-1.712
		c0-0.427-0.351-0.815-0.925-1.118c0.1-0.023,0.191-0.059,0.261-0.13c0.145-0.146,0.184-0.435,0.006-0.778
		c0.178,0.18,0.294,0.305,0.443,0.352c0.059,0.009,0.117-0.014,0.173-0.08c0.058-0.066,0.113-0.182,0.132-0.326
		c0.051-0.298-0.015-0.719-0.21-1.139c-0.012-0.025-0.03-0.054-0.043-0.08c0.051,0.037,0.101,0.066,0.156,0.084
		c0.058,0.008,0.117-0.014,0.173-0.08c0.058-0.067,0.114-0.182,0.132-0.327c0.035-0.201,0.011-0.461-0.065-0.736
		c0.067-0.037,0.133-0.097,0.199-0.18c0.015,0.133,0.039,0.254,0.076,0.351c0.088,0.24,0.221,0.346,0.333,0.33
		c0.142-0.026,0.257-0.168,0.394-0.369c0.015,0.078,0.034,0.15,0.058,0.213c0.088,0.241,0.221,0.346,0.333,0.33
		c0.188-0.035,0.325-0.26,0.534-0.573c0.009,0.185,0.04,0.347,0.088,0.474c0.088,0.24,0.221,0.346,0.333,0.33
		c0.137-0.025,0.249-0.158,0.379-0.347c0.131,0.241,0.28,0.36,0.417,0.347c0.22-0.024,0.373-0.356,0.517-0.824
		c0.145,0.467,0.297,0.8,0.511,0.821c0.136,0.015,0.286-0.106,0.417-0.347c0.129,0.188,0.242,0.32,0.379,0.347
		c0.112,0.015,0.245-0.09,0.333-0.331c0.048-0.126,0.079-0.287,0.088-0.473c0.209,0.312,0.347,0.538,0.533,0.574
		c0.112,0.015,0.246-0.09,0.333-0.331c0.024-0.062,0.044-0.134,0.059-0.213c0.137,0.2,0.252,0.343,0.395,0.369
		c0.112,0.016,0.245-0.089,0.333-0.33c0.036-0.097,0.061-0.218,0.075-0.351c0.066,0.084,0.132,0.143,0.199,0.18
		c-0.076,0.275-0.1,0.535-0.065,0.736c0.019,0.145,0.075,0.26,0.132,0.326c0.057,0.067,0.115,0.09,0.174,0.08
		c0.055-0.017,0.104-0.046,0.155-0.084c-0.013,0.027-0.03,0.055-0.043,0.082c-0.194,0.418-0.261,0.84-0.21,1.137
		c0.019,0.145,0.074,0.26,0.133,0.327c0.057,0.067,0.114,0.089,0.172,0.08c0.148-0.047,0.266-0.172,0.443-0.352
		c-0.178,0.345-0.139,0.632,0.006,0.778c0.07,0.072,0.162,0.107,0.262,0.13c-0.575,0.303-0.926,0.691-0.926,1.118
		c0,0.859,1.411,1.572,3.262,1.712c0.07,0.69,0.601,1.229,1.252,1.229c0.234,0,0.451-0.073,0.639-0.193
		c0.245,0.573,0.775,0.974,1.395,0.974c0.744,0,1.366-0.576,1.51-1.343c0.578-0.129,1.012-0.686,1.012-1.354
		c0-0.277-0.076-0.533-0.205-0.749c0.009-0.059,0.017-0.118,0.017-0.179c0-0.619-0.461-1.123-1.028-1.123
		c-0.194,0-0.373,0.062-0.527,0.164c-0.525-0.406-1.41-0.706-2.461-0.82c0.061-0.031,0.109-0.07,0.141-0.123
		c0.062-0.104,0.033-0.263-0.078-0.443c0.385,0.006,0.646-0.037,0.746-0.205c0.131-0.215-0.127-0.661-0.699-1.051
		c0.387,0.005,0.65-0.037,0.752-0.207c0.131-0.215-0.132-0.668-0.715-1.061c-0.104-0.07-0.225-0.139-0.351-0.205
		c0.414,0.01,0.698-0.027,0.804-0.203c0.131-0.217-0.131-0.67-0.714-1.062c-0.042-0.027-0.087-0.055-0.132-0.082
		c0.248-0.016,0.428-0.067,0.506-0.196c0.131-0.216-0.131-0.669-0.714-1.062c-0.138-0.093-0.296-0.184-0.472-0.267
		c0.463,0.018,0.783-0.012,0.896-0.2c0.132-0.217-0.131-0.67-0.714-1.062c-0.109-0.073-0.234-0.146-0.368-0.214
		c0.272,0.064,0.481,0.13,0.638,0.18c0.1,0.031,0.178,0.056,0.231,0.072c0.07,0.019,0.138,0.027,0.194,0.008
		c0.057-0.021,0.1-0.069,0.121-0.162c0.025-0.098,0.021-0.23-0.031-0.38c-0.084-0.272-0.309-0.577-0.616-0.839
		c0.021-0.082,0.028-0.185,0.009-0.312c-0.001-0.005-0.004-0.011-0.004-0.017c0.035,0.002,0.07,0,0.102-0.014
		c0.223-0.086,0.28-0.604,0.08-1.334c-0.068-0.243-0.167-0.512-0.311-0.797c0.316,0.193,0.529,0.34,0.715,0.286
		c0.108-0.038,0.189-0.193,0.177-0.452c-0.008-0.26-0.117-0.604-0.34-0.957c-0.013-0.021-0.03-0.042-0.044-0.062
		c0.296,0.188,0.523,0.27,0.666,0.176c0.202-0.132,0.168-0.652-0.157-1.327c-0.019-0.037-0.04-0.076-0.06-0.114
		c0.041,0.026,0.082,0.054,0.128,0.06c0.113,0.009,0.241-0.104,0.317-0.349c0.079-0.245,0.094-0.609,0.006-1.026
		c-0.02-0.091-0.045-0.185-0.074-0.279c0.158,0.29,0.31,0.463,0.467,0.46c0.234-0.004,0.443-0.474,0.471-1.235
		c0.01-0.383-0.018-0.84-0.168-1.374c-0.002-0.008-0.005-0.017-0.008-0.025c0.047-0.033,0.085-0.104,0.113-0.201
		c-0.006,0.232,0.035,0.436,0.113,0.563c0.123,0.216,0.27,0.268,0.377,0.227c0.115-0.042,0.195-0.166,0.289-0.282
		c0.088-0.119,0.206-0.218,0.342-0.31c0.089-0.058,0.199-0.114,0.318-0.166c-0.071,0.088-0.134,0.181-0.186,0.275
		c-0.211,0.389-0.235,0.796-0.146,1.03c0.083,0.237,0.218,0.318,0.33,0.3c0.12-0.017,0.221-0.122,0.333-0.216
		c0.107-0.099,0.24-0.171,0.389-0.234c0.008-0.003,0.017-0.005,0.023-0.007c-0.035,0.051-0.074,0.1-0.103,0.153
		c-0.212,0.389-0.235,0.796-0.146,1.03c0.082,0.237,0.219,0.318,0.33,0.301c0.12-0.017,0.221-0.123,0.333-0.217
		c0.066-0.061,0.146-0.11,0.229-0.156c-0.157,0.147-0.29,0.311-0.386,0.485c-0.212,0.389-0.235,0.796-0.146,1.03
		c0.082,0.238,0.219,0.318,0.33,0.3c0.12-0.017,0.221-0.123,0.333-0.216c0.107-0.098,0.239-0.171,0.39-0.234
		c0.155-0.062,0.354-0.116,0.57-0.136c0.023-0.001,0.045,0,0.067,0c-0.05,0.045-0.097,0.091-0.14,0.139
		c-0.404,0.426-0.624,0.888-0.745,1.306c-0.12,0.417-0.123,0.799-0.041,1.059c0.076,0.259,0.218,0.368,0.327,0.347
		c0.202-0.053,0.349-0.284,0.614-0.591c-0.296,0.454-0.464,0.902-0.558,1.302c-0.101,0.439-0.099,0.831-0.021,1.105
		c0.049,0.182,0.129,0.291,0.209,0.342c-0.166,0.393-0.226,0.779-0.178,1.057c0.018,0.145,0.074,0.26,0.132,0.327
		c0.057,0.067,0.114,0.089,0.173,0.081c0.144-0.046,0.258-0.165,0.425-0.334c0.024,0.121,0.073,0.205,0.142,0.238
		c0.082,0.042,0.182,0.028,0.299-0.022c0,0.008,0,0.017,0,0.025c-0.004,0.005-0.01,0.009-0.014,0.013
		c-0.403,0.426-0.623,0.888-0.744,1.306c-0.119,0.418-0.123,0.8-0.041,1.06c0.076,0.258,0.217,0.367,0.326,0.346
		c0.167-0.043,0.294-0.209,0.48-0.436c0,0.031-0.001,0.062-0.002,0.092c-0.158,0.168-0.26,0.359-0.279,0.52
		c-0.01,0.066-0.007,0.123,0.001,0.174c-0.012-0.001-0.022-0.004-0.034-0.004c-0.965,0-1.746,0.853-1.746,1.905
		c0,0.697,0.346,1.3,0.858,1.633c-0.191,0.377-0.304,0.832-0.304,1.323c0,1.298,0.781,2.35,1.746,2.35
		c0.517,0,0.975-0.308,1.295-0.786c0.229,0.12,0.482,0.192,0.752,0.192c0.833,0,1.526-0.637,1.701-1.487
		c0.739-0.146,1.302-0.849,1.302-1.698c0-0.594-0.277-1.113-0.696-1.424c0.035-0.079,0.056-0.185,0.05-0.317
		c-0.003-0.151-0.039-0.329-0.104-0.519c0.266,0.193,0.443,0.322,0.613,0.309c0.109-0.014,0.213-0.184,0.201-0.469
		c-0.006-0.254-0.104-0.584-0.285-0.922c0.103,0.115,0.194,0.2,0.305,0.229c0.109,0.021,0.25-0.088,0.326-0.346
		c0.082-0.26,0.078-0.643-0.041-1.06c0-0.003-0.002-0.005-0.003-0.009c0.303,0.418,0.456,0.695,0.667,0.751
		c0.109,0.023,0.254-0.103,0.326-0.376c0.078-0.273,0.079-0.666-0.021-1.105c-0.094-0.4-0.262-0.849-0.558-1.303
		c0.266,0.308,0.412,0.538,0.614,0.592c0.109,0.021,0.252-0.088,0.327-0.347c0.082-0.26,0.078-0.642-0.041-1.06
		c-0.02-0.066-0.046-0.137-0.071-0.206c0.158,0.192,0.278,0.335,0.429,0.374c0.11,0.021,0.251-0.088,0.327-0.346
		c0.082-0.26,0.078-0.643-0.041-1.059c-0.027-0.095-0.062-0.191-0.1-0.29c0.156,0.069,0.287,0.085,0.383,0.019
		c0.196-0.137,0.224-0.574-0.008-1.207c-0.121-0.314-0.299-0.677-0.64-1.051c-0.094-0.095-0.197-0.195-0.322-0.287
		c0.005-0.001,0.011-0.002,0.017-0.003c0.565-0.093,0.878-0.169,1.016-0.377c0.148-0.22-0.217-0.688-0.855-0.935
		c-0.244-0.102-0.544-0.17-0.868-0.215c0.001,0,0.002,0,0.003,0C54.132,29.147,54.426,29.213,54.682,29.261z M34.553,10.353
		c1.477-0.771,2.654-1.233,3.541,0.529c0.193,0.459,0.135,0.87-0.27,1.289c-1.57,1.224-3.66,1.093-4.461-0.562
		C33.252,11.144,33.695,10.764,34.553,10.353z M27.395,10.882c0.885-1.762,2.063-1.3,3.541-0.529
		c0.858,0.411,1.301,0.79,1.189,1.256c-0.8,1.655-2.891,1.786-4.461,0.562C27.26,11.751,27.201,11.341,27.395,10.882z M28.189,14.41
		h0.582c0.023,0.71,0.444,1.278,0.966,1.278c0.521,0,0.942-0.568,0.965-1.278h1.077c0.023,0.71,0.445,1.278,0.966,1.278
		c0.521,0,0.942-0.568,0.966-1.278h1.077c0.021,0.71,0.443,1.278,0.965,1.278s0.943-0.568,0.966-1.278h0.581v0
		c0.613,0.267,1.047,0.879,1.047,1.589c0,0.33-0.099,0.637-0.261,0.9c-0.169-0.389-0.476-0.652-0.829-0.652
		c-0.525,0-0.952,0.58-0.967,1.301h-1.074c-0.014-0.722-0.439-1.301-0.967-1.301c-0.525,0-0.953,0.58-0.967,1.301h-1.074
		c-0.014-0.722-0.44-1.301-0.967-1.301c-0.526,0-0.953,0.58-0.967,1.301H29.2c-0.015-0.722-0.44-1.301-0.967-1.301
		c-0.354,0-0.659,0.263-0.829,0.652c-0.162-0.264-0.26-0.57-0.26-0.9C27.144,15.289,27.576,14.677,28.189,14.41z M32.976,28.416
		c-0.052,1.047-0.136,1.73-0.231,1.73s-0.179-0.682-0.231-1.73c-3.585-0.005-6.457-0.132-6.457-0.288
		c0-0.155,2.858-0.281,6.433-0.287c-0.021-0.585-0.032-1.248-0.032-1.952c0-2.351,0.129-4.257,0.288-4.257
		c0.158,0,0.287,1.906,0.287,4.257c0,0.704-0.012,1.367-0.032,1.952c3.574,0.006,6.433,0.132,6.433,0.287
		C39.432,28.284,36.561,28.41,32.976,28.416z"/>
	<circle fill="#ECE7D8" cx="35.471" cy="11.885" r="0.898"/>
</g>
<g>
	<path d="M43.179,49.003c-0.609,0-1.177-0.34-1.506-0.885c-0.17,0.069-0.348,0.105-0.526,0.105c-0.708,0-1.31-0.523-1.472-1.248
		c-1.953-0.191-3.298-0.98-3.298-1.951c0-0.413,0.237-0.795,0.692-1.119c-0.064-0.081-0.116-0.187-0.14-0.312
		c-0.001,0.001-0.003,0.002-0.004,0.002c-0.111,0.035-0.29,0.025-0.446-0.16c-0.098-0.113-0.169-0.281-0.191-0.459
		c-0.047-0.275-0.008-0.621,0.109-0.971c-0.042-0.027-0.085-0.062-0.127-0.112c-0.098-0.113-0.168-0.281-0.189-0.46
		c-0.006-0.028-0.01-0.059-0.013-0.089c-0.124,0.082-0.246,0.085-0.312,0.075c-0.104-0.019-0.191-0.063-0.27-0.125
		c-0.181,0.305-0.416,0.314-0.517,0.301c-0.147-0.028-0.263-0.104-0.366-0.214c-0.184,0.446-0.477,0.458-0.588,0.442
		c-0.135-0.024-0.242-0.093-0.334-0.182c-0.15,0.147-0.295,0.186-0.404,0.186c-0.241-0.023-0.407-0.178-0.531-0.389
		c-0.118,0.211-0.271,0.365-0.487,0.387c-0.132,0.021-0.297-0.037-0.45-0.184c-0.091,0.089-0.195,0.156-0.323,0.181
		c-0.118,0.024-0.409,0.021-0.6-0.44c-0.103,0.109-0.214,0.184-0.354,0.211c-0.106,0.019-0.34,0.019-0.529-0.297
		c-0.075,0.061-0.16,0.104-0.257,0.122c-0.07,0.013-0.192,0.013-0.325-0.075c-0.003,0.035-0.008,0.069-0.013,0.102
		c-0.021,0.168-0.091,0.336-0.191,0.451c-0.041,0.049-0.083,0.083-0.125,0.109c0.117,0.351,0.156,0.697,0.107,0.982
		c-0.021,0.168-0.091,0.336-0.191,0.451c-0.134,0.158-0.3,0.178-0.404,0.166c-0.015-0.006-0.03-0.01-0.044-0.016
		c-0.023,0.128-0.075,0.234-0.14,0.316c0.455,0.324,0.693,0.707,0.693,1.12c0,0.97-1.346,1.759-3.297,1.95
		c-0.164,0.725-0.766,1.248-1.473,1.248c-0.178,0-0.357-0.035-0.527-0.105c-0.328,0.546-0.895,0.886-1.505,0.886
		c-0.802,0-1.504-0.577-1.727-1.395c-0.618-0.217-1.052-0.846-1.052-1.558c0-0.281,0.067-0.555,0.196-0.801
		c-0.004-0.041-0.008-0.084-0.008-0.127c0-0.76,0.577-1.379,1.285-1.379c0.174,0,0.348,0.04,0.51,0.116
		c0.499-0.337,1.211-0.587,2.051-0.719c-0.003-0.037-0.002-0.077,0.003-0.122c-0.25-0.027-0.48-0.107-0.605-0.316
		c-0.161-0.265-0.042-0.633,0.298-0.992c-0.145-0.049-0.269-0.129-0.35-0.264c-0.197-0.325,0.024-0.801,0.553-1.23
		c-0.12-0.049-0.222-0.125-0.291-0.24c-0.189-0.312,0.006-0.762,0.491-1.178c-0.059-0.042-0.11-0.096-0.15-0.162
		c-0.204-0.337,0.04-0.836,0.611-1.276c-0.133-0.048-0.246-0.127-0.321-0.252c-0.146-0.241-0.063-0.564,0.206-0.891
		c-0.019-0.005-0.037-0.009-0.054-0.016c-0.081-0.028-0.229-0.111-0.284-0.344c-0.039-0.149-0.025-0.337,0.038-0.522
		c0.086-0.279,0.293-0.581,0.584-0.854c-0.001-0.014-0.001-0.027-0.002-0.042c-0.321-0.2-0.381-0.787-0.158-1.603
		c0.019-0.064,0.038-0.128,0.059-0.191c-0.096,0.021-0.195,0.02-0.286-0.007c-0.248-0.084-0.378-0.348-0.362-0.709
		c0.005-0.166,0.043-0.349,0.11-0.536c-0.104-0.001-0.197-0.028-0.278-0.081c-0.309-0.201-0.318-0.737-0.034-1.426
		c-0.134-0.088-0.234-0.241-0.297-0.443c-0.062-0.189-0.087-0.42-0.075-0.67c-0.024,0.003-0.049,0.005-0.074,0.005
		c-0.429-0.007-0.699-0.561-0.732-1.482c-0.005-0.194,0-0.381,0.015-0.563c-0.122,0.03-0.196,0.017-0.277-0.016
		c-0.094-0.033-0.167-0.092-0.23-0.157c0.022,0.204,0.003,0.397-0.058,0.558c-0.101,0.289-0.304,0.467-0.539,0.467
		c-0.014,0-0.057-0.003-0.071-0.006c-0.061-0.009-0.116-0.027-0.167-0.053c0.033,0.225,0.018,0.44-0.049,0.616
		c-0.082,0.235-0.23,0.396-0.409,0.448c0.13,0.354,0.151,0.723,0.047,0.995c-0.101,0.29-0.304,0.468-0.54,0.468
		c-0.013,0-0.056-0.004-0.069-0.006c-0.171-0.023-0.296-0.133-0.406-0.229l-0.053-0.045c-0.042-0.039-0.089-0.073-0.144-0.105
		c0.179,0.277,0.317,0.584,0.413,0.911c0.127,0.444,0.141,0.884,0.039,1.207c-0.104,0.354-0.313,0.501-0.492,0.524
		c0.044,0.131,0.082,0.264,0.114,0.398c0.106,0.463,0.112,0.901,0.018,1.233c-0.039,0.148-0.095,0.256-0.154,0.336
		c0.133,0.373,0.181,0.743,0.13,1.037c-0.021,0.166-0.091,0.335-0.191,0.45c-0.136,0.16-0.303,0.179-0.403,0.167
		c-0.132-0.041-0.234-0.102-0.329-0.178c-0.005,0.004-0.011,0.01-0.016,0.013c0.234,0.323,0.407,0.678,0.52,1.065
		c0.127,0.444,0.142,0.885,0.04,1.207c-0.062,0.209-0.16,0.347-0.268,0.428c0.892,0.237,1.533,1.085,1.533,2.092
		c0,0.684-0.293,1.31-0.795,1.717c0.157,0.38,0.24,0.804,0.24,1.24c0,1.437-0.898,2.605-2.002,2.605
		c-0.514,0-1.006-0.262-1.377-0.723c-0.219,0.086-0.443,0.129-0.669,0.129c-0.893,0-1.659-0.622-1.914-1.531
		c-0.788-0.237-1.345-1.014-1.345-1.909c0-0.587,0.244-1.141,0.66-1.517c-0.012-0.07-0.017-0.144-0.015-0.222
		c-0.085,0.032-0.196,0.052-0.284,0.04c-0.226-0.029-0.445-0.267-0.425-0.733c0.003-0.138,0.029-0.288,0.074-0.448
		c-0.157-0.053-0.321-0.206-0.41-0.509c-0.027-0.085-0.045-0.181-0.056-0.28c-0.078,0.066-0.16,0.113-0.256,0.139
		c-0.021,0.006-0.068,0.011-0.09,0.011c-0.246,0-0.455-0.218-0.547-0.569c-0.094-0.327-0.087-0.765,0.019-1.227
		c0.032-0.135,0.069-0.269,0.114-0.399c-0.179-0.024-0.388-0.172-0.493-0.53c-0.063-0.197-0.081-0.443-0.055-0.707
		c-0.017,0.002-0.033,0.004-0.043,0.004c-0.188,0-0.43-0.141-0.545-0.533c-0.094-0.299-0.088-0.705,0.018-1.12
		c-0.058-0.015-0.111-0.038-0.16-0.073c-0.322-0.223-0.355-0.771-0.087-1.504c0.105-0.274,0.286-0.677,0.655-1.095
		c-0.329-0.078-0.559-0.185-0.698-0.395c-0.08-0.117-0.097-0.271-0.047-0.428c0.046-0.148,0.149-0.298,0.293-0.436
		c-0.18-0.045-0.309-0.137-0.386-0.275c-0.192-0.345,0.01-0.863,0.542-1.385c0.035-0.033,0.071-0.066,0.107-0.098
		c-0.147-0.035-0.303-0.111-0.395-0.269c-0.195-0.335,0.039-0.835,0.613-1.326c-0.042-0.037-0.081-0.083-0.112-0.138
		c-0.192-0.345,0.01-0.863,0.541-1.385c0.036-0.033,0.071-0.066,0.108-0.097c-0.147-0.036-0.303-0.111-0.395-0.27
		c-0.211-0.361,0.076-0.912,0.75-1.438c0.092-0.07,0.185-0.135,0.279-0.196c-0.197-0.044-0.384-0.119-0.505-0.294
		c-0.162-0.229-0.036-0.559,0.322-0.84c0.251-0.205,0.615-0.395,1.078-0.562c-0.052-0.032-0.101-0.071-0.145-0.12
		c-0.189-0.203-0.106-0.559,0.203-0.864c0.228-0.229,0.575-0.444,1-0.621c0.044-0.018,0.088-0.036,0.134-0.053
		c-0.187-0.361,0.102-0.901,0.762-1.416c0.187-0.143,0.378-0.266,0.581-0.372c-0.016-0.02-0.032-0.039-0.046-0.06
		c-0.16-0.222-0.052-0.557,0.265-0.811c0.23-0.192,0.56-0.348,0.976-0.46c0.334-0.088,0.683-0.138,1.038-0.146
		c-0.019-0.054-0.027-0.115-0.021-0.179c0.017-0.201,0.158-0.409,0.377-0.557c0.26-0.184,0.64-0.309,1.092-0.357
		c0.381-0.04,0.816-0.023,1.244,0.058c0-0.088,0.027-0.198,0.113-0.315c0.203-0.275,0.656-0.469,1.211-0.517
		c0.19-0.017,0.405-0.021,0.619-0.002c-0.041-0.23,0.129-0.487,0.443-0.65c0.205-0.11,0.467-0.188,0.78-0.231
		c0-0.015,0-0.03,0.001-0.045c0.012-0.19,0.128-0.384,0.319-0.534c0.012-0.01,0.024-0.02,0.038-0.029
		c-0.134-0.058-0.239-0.139-0.312-0.258c-0.05-0.08-0.099-0.218-0.046-0.411c0.073-0.265,0.323-0.554,0.678-0.792
		c-0.171-0.087-0.277-0.224-0.295-0.393c-0.021-0.193,0.034-0.384,0.176-0.597c0.137-0.201,0.35-0.416,0.615-0.625
		c0.043-0.033,0.091-0.068,0.14-0.104c-0.243-0.026-0.554-0.115-0.646-0.412c-0.108-0.349,0.128-0.766,0.686-1.211
		c-0.009-0.009-0.018-0.018-0.026-0.028c-0.18-0.195-0.125-0.543,0.134-0.821c0.159-0.173,0.389-0.327,0.662-0.444
		c-0.006-0.051-0.004-0.105,0.008-0.161c0.041-0.187,0.187-0.361,0.399-0.478c0.219-0.123,0.505-0.192,0.831-0.203
		c-0.019-0.097-0.013-0.244,0.104-0.403c0.195-0.264,0.62-0.452,1.144-0.51c0.023-0.188,0.165-0.376,0.398-0.512
		c0.245-0.146,0.584-0.237,0.979-0.261c0.133-0.007,0.271-0.008,0.409,0c-0.09-0.077-0.167-0.153-0.234-0.25
		c-0.063-0.086-0.085-0.207-0.058-0.331c0.042-0.187,0.187-0.361,0.399-0.478c0.272-0.152,0.648-0.226,1.079-0.2
		c0.448,0.026,0.9,0.144,1.343,0.349c0.064-0.073,0.129-0.14,0.194-0.199c0.257-0.234,0.539-0.381,0.792-0.415
		c0.307-0.042,0.562,0.092,0.651,0.331c0.021,0.072,0.037,0.145,0.047,0.222c0.668-0.176,1.152-0.094,1.384,0.059
		c0.295-0.099,0.591-0.104,0.817-0.01c0.362,0.153,0.46,0.483,0.367,0.716c-0.022,0.062-0.056,0.123-0.09,0.184
		c-0.004,0.005-0.007,0.011-0.01,0.017c0.078,0,0.159,0.001,0.236,0.006c0.395,0.024,0.736,0.116,0.982,0.263
		c0.231,0.134,0.373,0.322,0.396,0.51c0.522,0.058,0.948,0.246,1.144,0.51c0.117,0.159,0.123,0.305,0.104,0.404
		c0.325,0.011,0.611,0.081,0.831,0.204c0.211,0.116,0.356,0.29,0.398,0.477c0.012,0.055,0.014,0.109,0.007,0.161
		c0.272,0.117,0.503,0.271,0.663,0.445c0.259,0.277,0.313,0.624,0.13,0.824c-0.007,0.009-0.015,0.017-0.022,0.024
		c0.558,0.447,0.794,0.862,0.686,1.21c-0.093,0.297-0.404,0.386-0.646,0.412c0.049,0.036,0.095,0.07,0.139,0.103
		c0.268,0.21,0.48,0.425,0.616,0.624c0.143,0.215,0.199,0.405,0.178,0.6c-0.018,0.167-0.124,0.303-0.296,0.391
		c0.355,0.238,0.607,0.527,0.68,0.792c0.053,0.193,0.003,0.331-0.048,0.413c-0.072,0.118-0.177,0.199-0.31,0.256
		c0.012,0.01,0.025,0.02,0.037,0.029c0.189,0.149,0.307,0.343,0.318,0.533c0.001,0.015,0.002,0.03,0.001,0.044
		c0.313,0.043,0.576,0.121,0.784,0.233c0.311,0.161,0.48,0.417,0.438,0.648c0.213-0.018,0.429-0.014,0.62,0.002
		c0.554,0.049,1.007,0.242,1.209,0.517c0.088,0.117,0.113,0.227,0.113,0.315c0.432-0.081,0.867-0.096,1.242-0.058
		c0.454,0.049,0.834,0.173,1.099,0.36c0.216,0.146,0.356,0.354,0.374,0.555c0.005,0.064-0.003,0.124-0.021,0.179
		c0.354,0.009,0.702,0.059,1.036,0.146c0.417,0.113,0.747,0.269,0.981,0.463c0.312,0.251,0.421,0.586,0.259,0.811
		c-0.015,0.02-0.028,0.039-0.045,0.058c0.202,0.105,0.394,0.228,0.579,0.37c0.661,0.517,0.95,1.056,0.764,1.417
		c0.045,0.017,0.089,0.035,0.133,0.052c0.428,0.178,0.774,0.394,1.004,0.623c0.308,0.303,0.39,0.66,0.198,0.865
		c-0.044,0.048-0.091,0.086-0.142,0.118c0.463,0.167,0.826,0.357,1.08,0.564c0.354,0.278,0.48,0.609,0.318,0.839
		c-0.121,0.174-0.309,0.249-0.504,0.292c0.094,0.06,0.186,0.125,0.276,0.194c0.675,0.527,0.963,1.079,0.752,1.441
		c-0.091,0.158-0.246,0.233-0.394,0.269c0.034,0.031,0.069,0.062,0.104,0.094c0.535,0.525,0.736,1.043,0.543,1.389
		c-0.029,0.055-0.068,0.101-0.111,0.138c0.575,0.491,0.809,0.991,0.612,1.327c-0.091,0.158-0.246,0.232-0.394,0.269
		c0.035,0.03,0.068,0.062,0.103,0.094c0.536,0.525,0.737,1.043,0.545,1.389c-0.076,0.138-0.206,0.229-0.386,0.274
		c0.145,0.139,0.246,0.287,0.293,0.436c0.05,0.158,0.031,0.311-0.049,0.43c-0.139,0.211-0.373,0.316-0.695,0.394
		c0.371,0.421,0.549,0.821,0.652,1.09c0.269,0.737,0.236,1.286-0.086,1.509c-0.049,0.034-0.103,0.058-0.16,0.073
		c0.105,0.414,0.112,0.82,0.018,1.123c-0.115,0.389-0.357,0.529-0.545,0.529c-0.01,0-0.027-0.002-0.043-0.004
		c0.025,0.264,0.007,0.511-0.057,0.713c-0.104,0.353-0.313,0.5-0.492,0.524c0.044,0.131,0.082,0.265,0.113,0.398
		c0.107,0.462,0.113,0.9,0.018,1.232c-0.091,0.347-0.301,0.565-0.545,0.565c-0.018,0-0.062-0.005-0.079-0.009
		c-0.101-0.026-0.188-0.075-0.268-0.144c-0.011,0.103-0.03,0.199-0.058,0.287c-0.088,0.299-0.252,0.451-0.408,0.505
		c0.045,0.16,0.07,0.313,0.074,0.453c0.02,0.462-0.199,0.699-0.426,0.729c-0.093,0.013-0.199-0.009-0.284-0.04
		c0.003,0.076-0.003,0.15-0.015,0.222c0.416,0.376,0.66,0.929,0.66,1.517c0,0.896-0.557,1.672-1.345,1.908
		c-0.254,0.91-1.021,1.532-1.913,1.532c-0.227,0-0.451-0.044-0.67-0.13c-0.371,0.463-0.863,0.723-1.377,0.723
		c-1.104,0-2.002-1.168-2.002-2.605c0-0.436,0.082-0.859,0.24-1.239c-0.502-0.408-0.795-1.034-0.795-1.717
		c0-1.013,0.648-1.866,1.523-2.099c-0.105-0.084-0.2-0.221-0.261-0.427c-0.1-0.317-0.086-0.757,0.04-1.201
		c0.113-0.391,0.288-0.747,0.52-1.066c-0.006-0.004-0.01-0.008-0.015-0.012c-0.091,0.075-0.181,0.133-0.288,0.167
		c-0.113,0.035-0.291,0.023-0.445-0.16c-0.098-0.113-0.168-0.281-0.19-0.46c-0.05-0.282-0.001-0.651,0.132-1.025
		c-0.06-0.08-0.116-0.189-0.156-0.34c-0.094-0.329-0.087-0.767,0.02-1.229c0.031-0.135,0.069-0.268,0.113-0.398
		c-0.178-0.023-0.389-0.172-0.494-0.529c-0.1-0.318-0.086-0.758,0.041-1.201c0.096-0.33,0.234-0.635,0.414-0.914
		c-0.053,0.031-0.098,0.064-0.138,0.1l-0.06,0.052c-0.11,0.097-0.235,0.204-0.41,0.229c-0.012,0.002-0.054,0.005-0.066,0.005
		c-0.234,0-0.438-0.178-0.541-0.475c-0.104-0.268-0.082-0.637,0.049-0.988c-0.178-0.054-0.326-0.216-0.41-0.456
		c-0.066-0.172-0.081-0.386-0.049-0.609c-0.052,0.025-0.107,0.045-0.171,0.055c-0.012,0.001-0.054,0.005-0.066,0.005
		c-0.235,0-0.438-0.178-0.542-0.475c-0.06-0.157-0.076-0.349-0.055-0.55c-0.063,0.065-0.139,0.123-0.234,0.159
		c-0.075,0.028-0.152,0.044-0.273,0.013c0.016,0.184,0.02,0.369,0.015,0.562c-0.032,0.924-0.304,1.477-0.724,1.483
		c-0.027,0-0.055-0.003-0.082-0.007c0.012,0.251-0.014,0.482-0.076,0.675c-0.063,0.205-0.166,0.358-0.294,0.446
		c0.282,0.686,0.271,1.219-0.036,1.42c-0.08,0.053-0.174,0.08-0.277,0.08c0.066,0.188,0.105,0.371,0.11,0.539
		c0.017,0.359-0.116,0.623-0.351,0.703c-0.112,0.033-0.203,0.031-0.297,0.01c0.02,0.062,0.039,0.126,0.057,0.188
		c0.225,0.818,0.164,1.406-0.158,1.605c0,0.014,0,0.029-0.002,0.042c0.293,0.272,0.5,0.575,0.588,0.862
		c0.061,0.176,0.074,0.363,0.033,0.52c-0.053,0.227-0.201,0.31-0.284,0.34c-0.017,0.006-0.034,0.01-0.052,0.014
		c0.268,0.327,0.352,0.65,0.203,0.893c-0.074,0.125-0.186,0.203-0.318,0.251c0.57,0.44,0.814,0.939,0.609,1.277
		c-0.04,0.067-0.092,0.12-0.149,0.161c0.484,0.416,0.679,0.865,0.489,1.179c-0.068,0.114-0.17,0.19-0.289,0.239
		c0.527,0.43,0.748,0.904,0.551,1.23c-0.08,0.135-0.204,0.215-0.35,0.263c0.34,0.36,0.459,0.729,0.298,0.995
		c-0.124,0.207-0.354,0.287-0.604,0.314c0.006,0.044,0.006,0.084,0.002,0.121c0.841,0.133,1.553,0.383,2.053,0.719
		c0.161-0.075,0.334-0.115,0.509-0.115c0.709,0,1.286,0.617,1.286,1.378c0,0.044-0.004,0.086-0.008,0.128
		c0.127,0.245,0.195,0.52,0.195,0.799c0,0.713-0.434,1.342-1.053,1.559C44.683,48.426,43.979,49.003,43.179,49.003z M41.784,47.517
		c0.024,0,0.05,0.004,0.074,0.012c0.072,0.021,0.131,0.074,0.16,0.144c0.216,0.505,0.66,0.819,1.159,0.819
		c0.606,0,1.136-0.477,1.259-1.135c0.02-0.1,0.097-0.18,0.196-0.203c0.47-0.104,0.812-0.568,0.812-1.103
		c0-0.22-0.059-0.434-0.168-0.618c-0.031-0.051-0.043-0.109-0.033-0.168c0.007-0.047,0.014-0.094,0.014-0.141
		c0-0.479-0.348-0.867-0.773-0.867c-0.135,0-0.266,0.04-0.387,0.121c-0.091,0.06-0.211,0.055-0.297-0.012
		c-0.492-0.38-1.341-0.66-2.332-0.769c-0.113-0.013-0.204-0.097-0.225-0.21c-0.02-0.111,0.036-0.223,0.138-0.273
		c0.034-0.029,0.026-0.094-0.04-0.203c-0.049-0.079-0.051-0.18-0.005-0.26c0.046-0.082,0.116-0.133,0.226-0.129h0.059
		c0.404,0,0.459-0.074,0.464-0.082c0.009-0.058-0.119-0.363-0.624-0.708c-0.094-0.063-0.135-0.181-0.1-0.288
		c0.034-0.108,0.15-0.172,0.248-0.18l0.062,0.001c0.404,0,0.46-0.073,0.465-0.081c0.012-0.07-0.149-0.391-0.637-0.719
		c-0.098-0.064-0.209-0.129-0.326-0.189c-0.105-0.055-0.16-0.176-0.131-0.291s0.143-0.189,0.254-0.191l0.109,0.001
		c0.409,0,0.464-0.073,0.469-0.08c0.012-0.07-0.15-0.391-0.637-0.718l-0.081-0.051c-0.097-0.058-0.163-0.184-0.138-0.291
		c0.027-0.109,0.101-0.201,0.212-0.208c0.264-0.018,0.304-0.072,0.304-0.073c0.012-0.069-0.149-0.39-0.637-0.718
		c-0.137-0.091-0.284-0.175-0.438-0.247c-0.11-0.053-0.168-0.175-0.139-0.293c0.028-0.117,0.113-0.191,0.258-0.194
		c0.07,0.003,0.137,0.005,0.199,0.005c0.407,0,0.461-0.072,0.467-0.08c0.012-0.07-0.15-0.391-0.637-0.718
		c-0.103-0.069-0.22-0.135-0.343-0.199c-0.116-0.059-0.168-0.194-0.123-0.316c0.045-0.121,0.172-0.187,0.3-0.159
		c0.281,0.067,0.494,0.133,0.654,0.184l0.225,0.071c0.007-0.058,0-0.126-0.027-0.204c-0.072-0.234-0.268-0.496-0.541-0.729
		c-0.074-0.062-0.106-0.164-0.082-0.26c0.016-0.058,0.018-0.127,0.004-0.204c-0.013-0.077,0.009-0.165,0.062-0.222
		c0.054-0.059,0.136-0.091,0.205-0.092c0.029-0.045,0.093-0.39-0.082-1.025c-0.072-0.253-0.171-0.506-0.293-0.749
		c-0.052-0.104-0.028-0.227,0.056-0.305c0.084-0.076,0.21-0.088,0.307-0.029l0.078,0.048c0.166,0.103,0.337,0.208,0.417,0.212
		c-0.011-0.008,0.013-0.073,0.007-0.195c-0.008-0.24-0.117-0.542-0.301-0.831c-0.063-0.102-0.07-0.265,0.014-0.35
		s0.197-0.13,0.295-0.066c0.252,0.159,0.355,0.176,0.391,0.176c0.027-0.045,0.045-0.393-0.248-0.999l-0.031-0.061
		c-0.001,0-0.024-0.045-0.025-0.045c-0.053-0.104-0.031-0.229,0.053-0.308c0.085-0.077,0.211-0.091,0.309-0.03
		c0.018-0.026,0.044-0.072,0.067-0.147c0.073-0.224,0.072-0.558,0-0.897c-0.018-0.084-0.042-0.17-0.069-0.258
		c-0.037-0.125,0.025-0.26,0.146-0.311c0.119-0.051,0.26-0.002,0.324,0.113c0.161,0.295,0.244,0.327,0.246,0.328
		c0.031-0.035,0.188-0.344,0.21-0.989c0.013-0.456-0.037-0.868-0.157-1.295c-0.029-0.102,0-0.234,0.084-0.298h-0.001
		c-0.003,0,0.009-0.022,0.022-0.07c0.037-0.123,0.156-0.201,0.285-0.181c0.127,0.02,0.22,0.13,0.217,0.259
		c-0.006,0.213,0.035,0.359,0.076,0.425c0.058,0.101,0.098,0.118,0.098,0.118c0-0.01,0.062-0.09,0.1-0.138l0.051-0.063
		c0.09-0.122,0.219-0.239,0.396-0.36c0.104-0.068,0.229-0.131,0.36-0.189c0.108-0.047,0.234-0.015,0.307,0.079
		c0.071,0.094,0.07,0.224-0.004,0.316c-0.062,0.076-0.116,0.156-0.16,0.238c-0.171,0.313-0.196,0.647-0.133,0.815
		c0.041,0.117,0.082,0.142,0.082,0.143c0.001-0.01,0.074-0.074,0.117-0.112l0.062-0.052c0.108-0.1,0.255-0.189,0.453-0.273
		c0.104-0.039,0.239-0.01,0.308,0.078s0.09,0.203,0.027,0.294c-0.001,0.002-0.035,0.05-0.036,0.052
		c-0.019,0.026-0.038,0.053-0.054,0.08c-0.17,0.313-0.195,0.647-0.131,0.814c0.041,0.118,0.082,0.143,0.082,0.143
		c0-0.009,0.072-0.072,0.116-0.11l0.062-0.054c0.066-0.061,0.156-0.121,0.273-0.184c0.113-0.061,0.254-0.029,0.329,0.076
		c0.075,0.104,0.061,0.248-0.033,0.336c-0.144,0.135-0.257,0.276-0.336,0.421c-0.171,0.313-0.196,0.647-0.132,0.815
		c0.041,0.117,0.082,0.143,0.082,0.143c0-0.01,0.074-0.074,0.117-0.112l0.061-0.052c0.111-0.103,0.259-0.191,0.455-0.273
		c0.146-0.059,0.373-0.131,0.646-0.156c0.008,0,0.045-0.002,0.053-0.002c0.105,0,0.219,0.064,0.258,0.164
		c0.037,0.098,0.031,0.209-0.047,0.281c-0.045,0.04-0.086,0.082-0.125,0.124c-0.324,0.342-0.555,0.745-0.688,1.203
		c-0.098,0.343-0.114,0.685-0.043,0.911c0.025,0.083,0.053,0.129,0.07,0.154c0.064-0.045,0.16-0.162,0.27-0.293
		c0.051-0.061,0.104-0.127,0.164-0.197c0.09-0.102,0.242-0.116,0.348-0.036c0.107,0.081,0.135,0.231,0.061,0.345
		c-0.245,0.376-0.421,0.787-0.523,1.222c-0.085,0.372-0.094,0.729-0.023,0.977c0.043,0.158,0.099,0.195,0.1,0.195
		c0.105,0.068,0.146,0.201,0.098,0.316c-0.142,0.334-0.202,0.676-0.16,0.914c0.01,0.074,0.029,0.129,0.049,0.166
		c0.064-0.045,0.139-0.121,0.231-0.215c0.066-0.066,0.171-0.101,0.263-0.073c0.09,0.027,0.166,0.095,0.186,0.187
		c0.006,0.033,0.014,0.054,0.02,0.064c0.002-0.009,0.027-0.014,0.066-0.031c0.08-0.034,0.171-0.027,0.244,0.02
		c0.072,0.048,0.115,0.128,0.115,0.215c0,0.062-0.023,0.148-0.064,0.195c-0.34,0.358-0.57,0.762-0.703,1.221
		c-0.098,0.342-0.114,0.684-0.043,0.91c0.024,0.082,0.052,0.129,0.07,0.154c0.062-0.045,0.155-0.158,0.26-0.287l0.035-0.041
		c0.068-0.084,0.182-0.115,0.283-0.078c0.102,0.036,0.17,0.133,0.17,0.24c0,0.066-0.025,0.221-0.07,0.268
		c-0.141,0.147-0.201,0.29-0.211,0.375c-0.007,0.039-0.006,0.067-0.001,0.099c0.013,0.076-0.01,0.154-0.062,0.212
		c-0.051,0.057-0.127,0.083-0.202,0.086c-0.003,0-0.005,0-0.007,0c-0.842,0-1.507,0.738-1.507,1.646
		c0,0.586,0.277,1.117,0.742,1.418c0.11,0.071,0.147,0.214,0.089,0.33c-0.181,0.355-0.275,0.773-0.275,1.207
		c0,1.154,0.668,2.094,1.49,2.094c0.408,0,0.792-0.238,1.081-0.672c0.073-0.109,0.216-0.146,0.331-0.084
		c0.884,0.463,1.881-0.134,2.084-1.12c0.021-0.101,0.1-0.18,0.201-0.2c0.635-0.125,1.096-0.733,1.096-1.445
		c0-0.488-0.223-0.944-0.592-1.22c-0.097-0.071-0.131-0.198-0.083-0.307c0.015-0.036,0.032-0.102,0.028-0.206
		c-0.003-0.128-0.033-0.281-0.09-0.447c-0.037-0.105,0-0.223,0.091-0.287c0.09-0.068,0.212-0.066,0.302-0.002
		c0.152,0.111,0.296,0.216,0.387,0.25c0.013-0.037,0.025-0.1,0.021-0.191c-0.006-0.227-0.098-0.521-0.255-0.812
		c-0.062-0.114-0.028-0.256,0.079-0.33c0.105-0.075,0.25-0.058,0.338,0.039c0.024,0.027,0.078,0.09,0.128,0.125
		c0.019-0.024,0.044-0.069,0.065-0.145c0.074-0.23,0.057-0.572-0.041-0.916c-0.02-0.117,0.039-0.251,0.149-0.297
		c0.108-0.045,0.231-0.029,0.302,0.068l0.161,0.228c0.116,0.166,0.228,0.325,0.309,0.394C53.993,38,54.02,37.948,54.04,37.87
		c0.072-0.252,0.062-0.608-0.023-0.982c-0.1-0.432-0.276-0.842-0.522-1.219c-0.073-0.113-0.048-0.264,0.06-0.346
		c0.107-0.08,0.26-0.064,0.348,0.037c0.061,0.069,0.115,0.135,0.164,0.195c0.105,0.127,0.199,0.24,0.272,0.29
		c0.018-0.024,0.044-0.069,0.066-0.146c0.073-0.232,0.056-0.573-0.042-0.916c-0.014-0.049-0.031-0.099-0.051-0.148
		c-0.043-0.117-0.002-0.269,0.105-0.33c0.108-0.062,0.238-0.059,0.317,0.039c0.088,0.105,0.177,0.214,0.247,0.264
		c0.019-0.024,0.044-0.069,0.066-0.146c0.072-0.232,0.057-0.573-0.041-0.917c-0.025-0.086-0.057-0.176-0.094-0.266
		c-0.037-0.097-0.013-0.207,0.062-0.279c0.074-0.072,0.186-0.092,0.281-0.049c0.078,0.035,0.118,0.039,0.133,0.039
		c0.047-0.036,0.11-0.323-0.102-0.906c-0.098-0.256-0.256-0.601-0.589-0.966c-0.079-0.08-0.173-0.17-0.286-0.254
		c-0.084-0.063-0.122-0.172-0.094-0.274c0.028-0.102,0.116-0.176,0.221-0.187c0.486-0.08,0.765-0.146,0.844-0.266
		c-0.01-0.056-0.234-0.361-0.734-0.556c-0.215-0.089-0.486-0.155-0.811-0.2c-0.133-0.018-0.229-0.137-0.221-0.27
		c0.01-0.146,0.145-0.248,0.289-0.236l0,0c0.001,0,0.001,0,0.001,0c0.23,0.017,0.465,0.062,0.673,0.104l0.145,0.027
		c0.237,0.047,0.417,0.068,0.553,0.068l0,0c0.189,0,0.225-0.042,0.225-0.043c0.031-0.056-0.018-0.343-0.453-0.771
		c-0.225-0.212-0.471-0.377-0.749-0.503c-0.116-0.053-0.176-0.182-0.14-0.305c0.035-0.122,0.153-0.199,0.282-0.182
		c0.229,0.033,0.398,0.049,0.532,0.049c0.23,0,0.277-0.047,0.277-0.048c0.014-0.059-0.109-0.378-0.621-0.778
		c-0.074-0.056-0.156-0.113-0.242-0.17c-0.095-0.062-0.138-0.178-0.105-0.287s0.131-0.183,0.244-0.184
		c0.18-0.001,0.221-0.039,0.221-0.04c0.031-0.055-0.018-0.343-0.453-0.77c-0.225-0.211-0.471-0.377-0.749-0.503
		c-0.116-0.053-0.177-0.182-0.142-0.305c0.037-0.122,0.156-0.2,0.283-0.182c0.229,0.033,0.398,0.048,0.533,0.048
		c0.23,0,0.277-0.047,0.277-0.048c0.014-0.062-0.104-0.373-0.623-0.778c-0.295-0.226-0.609-0.396-0.959-0.521
		c-0.115-0.041-0.186-0.158-0.168-0.279c0.018-0.121,0.119-0.212,0.241-0.218c0.322-0.016,0.56-0.037,0.728-0.064
		c0.13-0.022,0.199-0.046,0.235-0.066c-0.026-0.042-0.078-0.107-0.173-0.182c-0.213-0.173-0.541-0.341-0.951-0.488
		c-0.371-0.131-0.766-0.229-1.172-0.292c-0.131-0.021-0.225-0.137-0.217-0.27c0.009-0.132,0.117-0.236,0.249-0.239
		c0.355-0.009,0.632-0.021,0.821-0.048c0.123-0.018,0.189-0.038,0.229-0.058c-0.018-0.042-0.057-0.109-0.139-0.189
		c-0.182-0.182-0.479-0.364-0.838-0.513c-0.205-0.084-0.42-0.155-0.636-0.21c-0.122-0.031-0.203-0.147-0.191-0.272
		s0.114-0.224,0.239-0.231c0.158-0.01,0.195-0.045,0.195-0.045c0.014-0.062-0.104-0.374-0.622-0.779
		c-0.274-0.209-0.565-0.372-0.89-0.496c-0.102-0.039-0.168-0.137-0.166-0.245c0.003-0.108,0.073-0.203,0.176-0.237
		c0.115-0.042,0.174-0.078,0.211-0.115c-0.016-0.033-0.055-0.09-0.135-0.154c-0.178-0.148-0.449-0.273-0.789-0.365
		c-0.41-0.108-0.836-0.152-1.299-0.123c-0.226,0.02-0.441,0.059-0.654,0.117c-0.131,0.035-0.27-0.038-0.311-0.168
		c-0.043-0.131,0.025-0.271,0.154-0.319c0.193-0.072,0.356-0.134,0.477-0.189c0.102-0.049,0.17-0.089,0.224-0.133
		c-0.022-0.037-0.065-0.09-0.138-0.138c-0.195-0.138-0.5-0.233-0.861-0.272c-0.398-0.041-0.882-0.009-1.346,0.107
		c-0.117,0.032-0.242,0.07-0.369,0.117c-0.123,0.046-0.262-0.01-0.318-0.126c-0.059-0.117-0.019-0.26,0.092-0.33
		c0.203-0.128,0.236-0.199,0.242-0.224c-0.022-0.06-0.309-0.27-0.857-0.318c-0.356-0.032-0.767,0-1.162,0.117
		c-0.156,0.053-0.333,0.116-0.518,0.222c-0.059,0.034-0.129,0.043-0.193,0.026c-0.106-0.028-0.195-0.125-0.203-0.233
		s0.042-0.215,0.143-0.258c0.312-0.131,0.512-0.224,0.645-0.301c0.117-0.069,0.168-0.118,0.195-0.158
		c-0.021-0.028-0.07-0.075-0.159-0.122c-0.202-0.108-0.495-0.178-0.849-0.202l-0.094-0.002c-0.001,0-0.053,0-0.053,0
		c-0.111-0.002-0.208-0.076-0.24-0.183c-0.031-0.107,0.01-0.221,0.1-0.284c0.027-0.019,0.051-0.036,0.07-0.054
		c-0.014-0.031-0.047-0.082-0.116-0.136c-0.171-0.136-0.45-0.232-0.767-0.265c-0.053-0.005-0.109-0.007-0.167-0.009
		c-0.138-0.004-0.257-0.117-0.258-0.255c-0.001-0.138,0.097-0.251,0.235-0.257l0.229-0.011c0.261-0.011,0.803-0.035,0.881-0.161
		c-0.001-0.066-0.194-0.377-0.71-0.646c-0.168-0.087-0.334-0.157-0.509-0.213c-0.125-0.04-0.2-0.167-0.173-0.296
		c0.027-0.128,0.15-0.211,0.276-0.203c0.206,0.021,0.399,0.031,0.548,0.005c0.109-0.018,0.159-0.05,0.168-0.061
		c-0.006-0.018-0.012-0.089-0.104-0.228c-0.073-0.106-0.221-0.283-0.506-0.505c-0.237-0.181-0.543-0.39-0.988-0.549
		c-0.049-0.018-0.102-0.034-0.157-0.05c-0.128-0.037-0.207-0.166-0.181-0.297c0.027-0.13,0.145-0.219,0.281-0.204l0.177,0.021
		c0.111,0.014,0.221,0.027,0.323,0.038c0.172,0.021,0.33,0.032,0.471,0.032c0.339,0,0.411-0.071,0.412-0.071
		c0.01-0.04-0.054-0.307-0.639-0.742c-0.049-0.034-0.107-0.072-0.164-0.11c-0.08-0.052-0.125-0.145-0.115-0.241
		c0.01-0.095,0.072-0.177,0.16-0.212c0.084-0.033,0.137-0.06,0.172-0.088c-0.008-0.031-0.033-0.09-0.099-0.159
		c-0.146-0.16-0.396-0.303-0.688-0.397c-0.084-0.027-0.176-0.103-0.197-0.189c-0.021-0.086-0.023-0.185,0.039-0.248
		c0.013-0.013,0.025-0.025,0.037-0.038c-0.02-0.028-0.059-0.071-0.132-0.111c-0.188-0.105-0.475-0.153-0.804-0.138
		c-0.082,0.005-0.168,0.015-0.258,0.028c-0.116,0.016-0.23-0.048-0.273-0.157c-0.045-0.109-0.01-0.235,0.087-0.304
		c0.128-0.092,0.156-0.148,0.161-0.173c-0.021-0.06-0.309-0.27-0.857-0.317c-0.074-0.007-0.152-0.01-0.233-0.012
		c-0.097-0.001-0.185-0.057-0.227-0.144c-0.042-0.087-0.032-0.19,0.026-0.268c0.018-0.021,0.032-0.04,0.039-0.052
		c-0.019,0.012-0.055-0.043-0.146-0.097c-0.179-0.106-0.445-0.174-0.756-0.193c-0.163-0.01-0.351-0.006-0.547,0.017
		c-0.088,0.011-0.175-0.025-0.23-0.095c-0.052-0.064-0.067-0.157-0.037-0.24c0.027-0.078,0.05-0.149,0.067-0.215
		c0.021-0.092,0.068-0.174,0.109-0.247c0.021-0.037,0.043-0.074,0.058-0.115l0,0c-0.002,0-0.021-0.032-0.088-0.06
		c-0.124-0.052-0.355-0.027-0.563,0.064c-0.1,0.045-0.22,0.02-0.295-0.064c-0.142-0.16-0.633-0.157-1.241,0.04
		c-0.083,0.044-0.203,0.053-0.282,0s-0.141-0.131-0.132-0.225c0.017-0.174,0.011-0.292-0.021-0.395
		c0.005,0.019-0.016,0.009-0.055,0.009c-0.191,0.023-0.384,0.13-0.56,0.29c-0.088,0.081-0.18,0.182-0.269,0.299
		c-0.077,0.1-0.215,0.129-0.327,0.069l-0.12-0.065c-0.391-0.188-0.796-0.297-1.195-0.32c-0.325-0.019-0.614,0.032-0.802,0.137
		c-0.075,0.042-0.115,0.085-0.134,0.113c0.053,0.063,0.122,0.118,0.211,0.189c0.104,0.076,0.252,0.169,0.433,0.283l0.14,0.087
		C30.648,4.243,30.823,4.358,31,4.481c0.082,0.057,0.124,0.158,0.106,0.256c-0.018,0.099-0.092,0.178-0.189,0.202
		c-0.06,0.015-0.141,0.013-0.194-0.014c-0.149-0.074-0.294-0.13-0.435-0.181c-0.387-0.122-0.807-0.171-1.178-0.152
		c-0.308,0.019-0.575,0.087-0.75,0.192c-0.081,0.047-0.121,0.093-0.139,0.119c0.005,0.003,0.012,0.012,0.019,0.021
		c0.059,0.077,0.074,0.186,0.032,0.273c-0.042,0.087-0.126,0.149-0.223,0.15c-0.081,0.001-0.159,0.004-0.234,0.011
		c-0.549,0.048-0.836,0.258-0.858,0.333c0.005,0.01,0.033,0.065,0.161,0.158c0.096,0.069,0.132,0.194,0.088,0.304
		s-0.157,0.175-0.275,0.157c-0.089-0.013-0.175-0.022-0.258-0.027c-0.321-0.015-0.614,0.032-0.802,0.137
		c-0.074,0.041-0.113,0.084-0.132,0.111c0.012,0.013,0.024,0.025,0.036,0.037c0.063,0.064,0.088,0.157,0.066,0.245
		s-0.089,0.157-0.177,0.182c-0.339,0.105-0.589,0.25-0.734,0.407c-0.066,0.071-0.091,0.129-0.1,0.16
		c0.037,0.03,0.089,0.056,0.171,0.088c0.089,0.035,0.151,0.118,0.161,0.213c0.01,0.096-0.035,0.188-0.116,0.24
		c-0.058,0.038-0.115,0.076-0.167,0.113c-0.58,0.43-0.645,0.697-0.631,0.747l0,0c0.004,0,0.085,0.063,0.407,0.063
		c0.141,0,0.299-0.012,0.468-0.032c0.105-0.011,0.213-0.024,0.325-0.039l0.178-0.021c0.132-0.017,0.255,0.073,0.281,0.205
		c0.026,0.131-0.053,0.26-0.181,0.296c-0.055,0.016-0.107,0.033-0.157,0.05c-0.446,0.16-0.751,0.369-0.991,0.551
		c-0.281,0.221-0.429,0.397-0.503,0.505c-0.091,0.136-0.097,0.208-0.092,0.255c-0.002-0.021,0.048,0.013,0.153,0.031
		c0.156,0.027,0.344,0.016,0.552-0.005c0.134-0.009,0.25,0.075,0.276,0.203s-0.048,0.256-0.172,0.296
		c-0.173,0.055-0.344,0.127-0.508,0.213c-0.516,0.269-0.709,0.579-0.703,0.664c0.07,0.107,0.612,0.131,0.873,0.143l0.23,0.011
		c0.138,0.005,0.246,0.119,0.246,0.257s-0.11,0.25-0.248,0.254c-0.077,0.002-0.135,0.004-0.189,0.01
		c-0.316,0.033-0.595,0.129-0.764,0.264c-0.07,0.054-0.103,0.105-0.116,0.137c0.021,0.018,0.042,0.035,0.069,0.053
		c0.092,0.063,0.132,0.178,0.1,0.284s-0.128,0.18-0.239,0.183c0,0-0.052,0-0.053,0l-0.096,0.003c-0.353,0.024-0.645,0.093-0.842,0.2
		c-0.092,0.047-0.141,0.095-0.164,0.123c0.028,0.042,0.081,0.091,0.197,0.16c0.171,0.1,0.449,0.219,0.643,0.301
		c0.103,0.043,0.166,0.147,0.156,0.258c-0.009,0.111-0.09,0.203-0.198,0.228c-0.063,0.014-0.156,0.012-0.212-0.021
		c-0.184-0.106-0.36-0.169-0.526-0.225c-0.384-0.112-0.797-0.145-1.152-0.114c-0.549,0.048-0.836,0.257-0.858,0.333
		c0.005,0.009,0.039,0.08,0.241,0.208c0.111,0.07,0.151,0.212,0.093,0.331c-0.058,0.118-0.196,0.172-0.318,0.126
		c-0.128-0.048-0.253-0.085-0.375-0.119c-0.457-0.114-0.937-0.147-1.342-0.106c-0.36,0.039-0.664,0.135-0.855,0.269
		c-0.075,0.051-0.12,0.104-0.142,0.141c0.057,0.046,0.124,0.085,0.229,0.136c0.114,0.052,0.277,0.114,0.471,0.186
		c0.128,0.048,0.196,0.188,0.154,0.318s-0.178,0.203-0.311,0.168c-0.213-0.059-0.429-0.097-0.661-0.117
		c-0.43-0.024-0.883,0.015-1.293,0.124c-0.338,0.091-0.609,0.216-0.784,0.362c-0.082,0.065-0.121,0.124-0.139,0.157
		c0.038,0.037,0.098,0.073,0.214,0.116c0.1,0.037,0.169,0.133,0.17,0.24s-0.062,0.203-0.162,0.241
		c-0.325,0.123-0.617,0.286-0.893,0.497c-0.516,0.403-0.633,0.714-0.618,0.782c0.002-0.003,0.033,0.031,0.193,0.041
		c0.126,0.007,0.228,0.106,0.239,0.231s-0.069,0.241-0.192,0.272c-0.216,0.056-0.43,0.127-0.637,0.211
		c-0.358,0.149-0.655,0.331-0.834,0.511c-0.082,0.081-0.122,0.149-0.14,0.19c0.039,0.021,0.105,0.041,0.228,0.058
		c0.19,0.027,0.466,0.039,0.821,0.048c0.133,0.003,0.241,0.107,0.249,0.24c0.008,0.132-0.085,0.249-0.217,0.269
		c-0.406,0.062-0.801,0.161-1.173,0.292c-0.409,0.146-0.736,0.314-0.946,0.485c-0.097,0.076-0.15,0.142-0.177,0.184
		c0.048,0.026,0.127,0.048,0.237,0.067c0.166,0.027,0.403,0.048,0.726,0.064c0.122,0.006,0.223,0.097,0.241,0.218
		c0.018,0.121-0.052,0.237-0.167,0.278c-0.35,0.125-0.665,0.295-0.962,0.523c-0.516,0.403-0.633,0.713-0.618,0.782l0,0
		c0.003,0,0.058,0.042,0.274,0.042c0.135,0,0.304-0.016,0.533-0.048c0.127-0.017,0.247,0.06,0.282,0.182
		c0.036,0.122-0.024,0.252-0.14,0.305c-0.279,0.126-0.525,0.292-0.753,0.507c-0.431,0.424-0.48,0.711-0.448,0.767l0,0
		c0,0,0.042,0.037,0.22,0.039c0.113,0,0.212,0.075,0.244,0.184c0.032,0.109-0.011,0.225-0.106,0.287
		c-0.087,0.057-0.169,0.114-0.243,0.171c-0.516,0.402-0.633,0.714-0.618,0.782l0,0c0.003,0,0.058,0.041,0.274,0.041
		c0.135,0,0.304-0.015,0.534-0.049c0.126-0.015,0.247,0.061,0.282,0.183s-0.024,0.253-0.141,0.306
		c-0.278,0.125-0.525,0.29-0.752,0.506c-0.431,0.424-0.48,0.711-0.449,0.767c0.009,0.017,0.253,0.077,0.776-0.025l0.148-0.028
		c0.218-0.043,0.465-0.091,0.687-0.105c0.143-0.012,0.259,0.094,0.273,0.23s-0.082,0.26-0.218,0.279
		c-0.325,0.044-0.596,0.11-0.806,0.197c-0.505,0.195-0.729,0.501-0.729,0.585c0.077,0.104,0.439,0.173,0.834,0.238
		c0.101,0.017,0.191,0.093,0.215,0.193c0.024,0.099-0.005,0.205-0.088,0.267c-0.113,0.084-0.207,0.175-0.292,0.262
		c-0.326,0.357-0.484,0.703-0.584,0.963c-0.211,0.578-0.147,0.865-0.101,0.904c0.014-0.003,0.055-0.007,0.133-0.042
		c0.094-0.043,0.206-0.022,0.28,0.05c0.075,0.072,0.1,0.182,0.062,0.278c-0.035,0.091-0.067,0.18-0.093,0.268
		c-0.098,0.343-0.114,0.684-0.042,0.91c0.024,0.082,0.051,0.129,0.07,0.154c0.063-0.047,0.159-0.163,0.245-0.268
		c0.079-0.096,0.216-0.121,0.325-0.06c0.108,0.062,0.157,0.192,0.114,0.31c-0.034,0.092-0.052,0.141-0.066,0.189
		c-0.096,0.343-0.113,0.684-0.041,0.91c0.024,0.083,0.051,0.13,0.069,0.154c0.065-0.045,0.162-0.161,0.27-0.293
		c0.05-0.061,0.104-0.126,0.165-0.195c0.088-0.102,0.239-0.117,0.347-0.037c0.107,0.082,0.134,0.232,0.061,0.346
		c-0.245,0.376-0.421,0.786-0.522,1.221c-0.085,0.373-0.095,0.729-0.024,0.975c0.022,0.084,0.049,0.139,0.07,0.17
		c0.074-0.063,0.188-0.225,0.307-0.395l0.162-0.229c0.072-0.1,0.205-0.135,0.315-0.082c0.111,0.052,0.17,0.176,0.141,0.294
		c-0.104,0.361-0.12,0.702-0.048,0.929c0.023,0.08,0.05,0.127,0.069,0.152c0.043-0.033,0.101-0.099,0.126-0.127
		c0.086-0.098,0.231-0.115,0.338-0.041c0.106,0.074,0.14,0.217,0.079,0.33c-0.157,0.292-0.249,0.587-0.254,0.809
		c-0.004,0.096,0.009,0.16,0.021,0.198c0.085-0.032,0.231-0.14,0.385-0.251c0.09-0.065,0.213-0.066,0.303,0
		c0.089,0.066,0.127,0.183,0.09,0.288c-0.056,0.165-0.087,0.318-0.09,0.442c-0.005,0.109,0.013,0.174,0.029,0.211
		c0.047,0.109,0.013,0.236-0.083,0.307c-0.371,0.275-0.592,0.73-0.592,1.219c0,0.713,0.46,1.32,1.095,1.446
		c0.102,0.021,0.181,0.099,0.201,0.2c0.203,0.986,1.198,1.584,2.083,1.119c0.117-0.061,0.259-0.024,0.332,0.084
		c0.29,0.435,0.673,0.672,1.082,0.672c0.822,0,1.49-0.938,1.49-2.093c0-0.435-0.096-0.851-0.276-1.207
		c-0.06-0.117-0.021-0.26,0.089-0.331c0.465-0.301,0.742-0.831,0.742-1.418c0-0.914-0.656-1.652-1.501-1.649
		c-0.075,0-0.154-0.03-0.203-0.085c-0.051-0.057-0.085-0.133-0.073-0.209c0.005-0.031,0.006-0.061,0-0.093
		c-0.011-0.092-0.072-0.233-0.212-0.382c-0.044-0.047-0.069-0.109-0.07-0.174c0-0.108,0.066-0.252,0.168-0.288
		c0.102-0.037,0.215-0.052,0.285,0.032l0.035,0.042c0.101,0.124,0.191,0.233,0.262,0.283c0.019-0.025,0.043-0.07,0.066-0.147
		c0.073-0.23,0.056-0.571-0.042-0.916c-0.133-0.456-0.363-0.86-0.685-1.199c-0.047-0.051-0.085-0.129-0.083-0.197
		c0.002-0.085,0.048-0.176,0.12-0.222s0.162-0.066,0.24-0.03c0.036,0.016,0.059,0.021,0.072,0.023
		c0.002-0.01,0.008-0.028,0.014-0.056c0.019-0.093,0.087-0.167,0.177-0.194c0.092-0.026,0.189-0.002,0.256,0.064
		c0.104,0.105,0.182,0.184,0.246,0.23c0.021-0.039,0.041-0.092,0.049-0.156c0.042-0.249-0.018-0.59-0.16-0.925
		c-0.049-0.115-0.007-0.249,0.099-0.315c0-0.001,0.057-0.038,0.098-0.192c0.072-0.252,0.063-0.608-0.022-0.981
		c-0.102-0.434-0.278-0.844-0.523-1.221c-0.074-0.112-0.047-0.264,0.061-0.345c0.107-0.08,0.26-0.064,0.348,0.037
		c0.06,0.069,0.114,0.135,0.164,0.195c0.105,0.127,0.199,0.241,0.271,0.291c0.019-0.025,0.044-0.07,0.067-0.146
		c0.073-0.232,0.057-0.572-0.042-0.917c-0.132-0.456-0.363-0.86-0.684-1.2c-0.042-0.045-0.084-0.086-0.128-0.127
		c-0.079-0.072-0.104-0.186-0.063-0.284c0.04-0.099,0.132-0.169,0.243-0.159l0.084,0.002c0.273,0.024,0.5,0.096,0.642,0.152
		c0.202,0.086,0.349,0.175,0.468,0.283l0.052,0.045c0.04,0.035,0.104,0.092,0.136,0.105c0-0.01,0.031-0.044,0.061-0.129
		c0.066-0.175,0.042-0.509-0.13-0.822c-0.079-0.145-0.192-0.287-0.336-0.422c-0.093-0.087-0.107-0.23-0.033-0.336
		c0.075-0.104,0.215-0.137,0.33-0.075c0.117,0.063,0.207,0.124,0.281,0.192l0.053,0.045c0.04,0.035,0.104,0.09,0.136,0.104
		c0-0.01,0.031-0.043,0.061-0.129c0.066-0.174,0.042-0.508-0.129-0.822c-0.016-0.029-0.037-0.057-0.057-0.084
		c-0.001-0.002-0.031-0.044-0.032-0.045c-0.063-0.092-0.06-0.214,0.007-0.302s0.184-0.122,0.289-0.085
		c0.235,0.096,0.382,0.186,0.5,0.293l0.052,0.045c0.04,0.034,0.104,0.091,0.136,0.104c0-0.011,0.031-0.044,0.061-0.129
		c0.067-0.175,0.042-0.508-0.129-0.823c-0.044-0.082-0.098-0.161-0.16-0.237c-0.074-0.091-0.076-0.222-0.004-0.316
		c0.071-0.094,0.197-0.126,0.306-0.079c0.132,0.058,0.255,0.121,0.355,0.185c0.184,0.125,0.312,0.243,0.408,0.373l0.044,0.055
		c0.034,0.043,0.088,0.112,0.118,0.133c0.003-0.01,0.036-0.037,0.076-0.108c0.044-0.073,0.085-0.219,0.08-0.432
		c-0.003-0.128,0.09-0.239,0.217-0.259c0.125-0.019,0.248,0.057,0.285,0.181c0.018,0.06,0.032,0.079,0.032,0.079
		c0.089,0.064,0.112,0.164,0.081,0.269c-0.126,0.448-0.177,0.86-0.165,1.318c0.022,0.621,0.168,0.929,0.239,0.987
		c0-0.017,0.08-0.077,0.218-0.329c0.063-0.114,0.205-0.161,0.324-0.111c0.121,0.051,0.184,0.185,0.146,0.31
		c-0.027,0.088-0.051,0.174-0.068,0.258c-0.072,0.34-0.072,0.674-0.001,0.894c0.026,0.085,0.054,0.133,0.073,0.156
		c0.093-0.041,0.213-0.034,0.29,0.035c0.085,0.078,0.12,0.193,0.066,0.296l-0.059,0.11c-0.291,0.604-0.274,0.951-0.234,1.01
		c0.022-0.014,0.127-0.031,0.378-0.189c0.103-0.064,0.235-0.049,0.32,0.038s0.096,0.221,0.029,0.321l-0.155-0.053l0.032,0.051
		l0.086,0.054c-0.186,0.294-0.295,0.595-0.303,0.831c-0.006,0.139,0.022,0.205,0.032,0.219c0.048-0.02,0.223-0.127,0.391-0.23
		l0.078-0.049c0.098-0.059,0.224-0.047,0.308,0.03c0.084,0.077,0.106,0.201,0.055,0.304c-0.122,0.243-0.221,0.496-0.293,0.751
		c-0.173,0.635-0.11,0.979-0.055,1.038c0.079-0.004,0.14,0.018,0.192,0.075c0.053,0.057,0.063,0.127,0.052,0.203
		c-0.018,0.098-0.016,0.168,0,0.225c0.024,0.096-0.007,0.197-0.082,0.26c-0.272,0.232-0.468,0.494-0.538,0.72
		c-0.032,0.093-0.037,0.165-0.032,0.213c0.003-0.001,0.006-0.001,0.009-0.002l0.193-0.062c0.186-0.059,0.399-0.124,0.68-0.191
		c0.126-0.029,0.255,0.038,0.299,0.159c0.044,0.122-0.008,0.258-0.124,0.317c-0.124,0.062-0.24,0.129-0.342,0.198
		c-0.487,0.328-0.649,0.648-0.633,0.726l0,0c0.001,0,0.057,0.072,0.463,0.072c0.063,0,0.129-0.002,0.2-0.005
		c0.131,0.004,0.23,0.077,0.258,0.195c0.029,0.118-0.029,0.241-0.139,0.292c-0.154,0.074-0.302,0.157-0.439,0.248
		c-0.485,0.327-0.647,0.646-0.633,0.726c-0.001-0.001,0.033,0.047,0.3,0.065c0.111,0.008,0.205,0.086,0.231,0.195
		c0.026,0.107-0.021,0.221-0.116,0.279l-0.123,0.074c-0.486,0.328-0.647,0.648-0.632,0.727c0.001,0,0.056,0.072,0.465,0.072
		l0.109-0.002c0.137,0.001,0.225,0.077,0.254,0.193c0.03,0.115-0.025,0.236-0.13,0.291c-0.117,0.06-0.228,0.123-0.326,0.189
		c-0.487,0.328-0.648,0.648-0.633,0.727l0,0c0.002,0,0.058,0.072,0.461,0.072h0.063c0.106,0.006,0.214,0.07,0.248,0.179
		s-0.007,0.226-0.1,0.288c-0.504,0.345-0.633,0.65-0.621,0.717c0.001,0,0.057,0.074,0.461,0.074l0.058-0.001
		c0.106,0.005,0.18,0.048,0.226,0.13c0.046,0.08,0.044,0.18-0.004,0.26c-0.067,0.109-0.074,0.174-0.072,0.188
		c0.101,0.052,0.172,0.17,0.152,0.281c-0.021,0.112-0.096,0.205-0.209,0.217c-0.991,0.109-1.84,0.389-2.331,0.77
		c-0.086,0.066-0.205,0.071-0.297,0.011c-0.123-0.081-0.252-0.121-0.387-0.121c-0.426,0-0.773,0.39-0.773,0.867
		c0,0.048,0.007,0.095,0.014,0.141c0.009,0.058-0.003,0.117-0.033,0.167c-0.11,0.188-0.169,0.4-0.169,0.619
		c0,0.535,0.342,0.999,0.812,1.104c0.1,0.022,0.177,0.102,0.196,0.203c0.123,0.657,0.653,1.135,1.259,1.135
		c0.492,0,0.947-0.322,1.159-0.819c0.03-0.069,0.088-0.122,0.16-0.144c0.072-0.023,0.15-0.012,0.214,0.029
		c0.159,0.102,0.328,0.153,0.5,0.153c0.511,0,0.939-0.431,0.998-1c0.012-0.123,0.111-0.22,0.235-0.229
		c1.894-0.143,3.025-0.852,3.025-1.457c0-0.307-0.28-0.623-0.789-0.891c-0.095-0.051-0.148-0.154-0.135-0.26
		c0.014-0.105,0.092-0.192,0.196-0.217c0.068-0.016,0.112-0.034,0.136-0.059c0.067-0.068,0.083-0.247-0.038-0.481
		c-0.058-0.112-0.025-0.25,0.077-0.325c0.102-0.074,0.244-0.062,0.332,0.027c0.116,0.117,0.197,0.2,0.264,0.248
		c0.021-0.038,0.041-0.09,0.049-0.156c0.046-0.271-0.026-0.65-0.188-0.998l-0.041-0.075c-0.052-0.106-0.025-0.233,0.065-0.31
		c0.091-0.075,0.221-0.08,0.316-0.01c0.003,0.002,0.005,0.003,0.007,0.005c0.021-0.036,0.04-0.089,0.048-0.154
		c0.029-0.174,0.008-0.396-0.059-0.636c-0.032-0.115,0.02-0.234,0.123-0.292c0.038-0.021,0.079-0.06,0.122-0.114
		c0.064-0.082,0.172-0.119,0.271-0.088c0.1,0.027,0.172,0.113,0.184,0.217c0.014,0.122,0.035,0.219,0.061,0.289
		c0.03,0.082,0.061,0.127,0.08,0.15c0.036-0.028,0.096-0.096,0.197-0.243c0.058-0.085,0.162-0.13,0.263-0.106
		c0.102,0.021,0.18,0.101,0.2,0.202c0.013,0.063,0.027,0.12,0.046,0.17c0.031,0.085,0.062,0.13,0.081,0.153
		c0.075-0.057,0.193-0.234,0.291-0.382l0.043-0.065c0.062-0.092,0.175-0.133,0.281-0.104c0.106,0.03,0.182,0.124,0.188,0.233
		c0.008,0.157,0.033,0.294,0.071,0.396c0.03,0.082,0.061,0.127,0.08,0.15c0.033-0.026,0.088-0.086,0.183-0.223
		c0.051-0.073,0.132-0.116,0.225-0.11c0.088,0.005,0.169,0.056,0.211,0.134c0.086,0.158,0.159,0.209,0.177,0.215
		c0-0.008,0.107-0.082,0.281-0.642c0.065-0.216,0.423-0.216,0.489,0c0.173,0.56,0.28,0.634,0.3,0.644
		c-0.001-0.008,0.071-0.059,0.158-0.217c0.042-0.078,0.121-0.129,0.211-0.134c0.088-0.01,0.174,0.037,0.225,0.11
		c0.094,0.137,0.149,0.196,0.183,0.223c0.019-0.022,0.049-0.066,0.078-0.148c0.04-0.104,0.065-0.242,0.073-0.398
		c0.006-0.109,0.081-0.203,0.188-0.233c0.106-0.028,0.219,0.013,0.281,0.104l0.043,0.065c0.098,0.147,0.216,0.325,0.291,0.382
		c0.019-0.023,0.049-0.067,0.078-0.148c0.021-0.055,0.035-0.111,0.048-0.174c0.02-0.102,0.098-0.182,0.199-0.203
		c0.1-0.021,0.205,0.021,0.264,0.106c0.104,0.15,0.163,0.216,0.198,0.243c0.019-0.022,0.049-0.066,0.078-0.146
		c0.027-0.074,0.049-0.171,0.062-0.293c0.012-0.104,0.085-0.189,0.185-0.218c0.103-0.028,0.207,0.007,0.271,0.089
		c0.041,0.053,0.084,0.093,0.122,0.114c0.103,0.058,0.153,0.178,0.122,0.292c-0.066,0.24-0.088,0.463-0.06,0.624
		c0.009,0.074,0.029,0.13,0.049,0.167c0.003-0.002,0.007-0.005,0.009-0.007c0.096-0.07,0.227-0.064,0.316,0.012
		c0.09,0.075,0.116,0.204,0.063,0.31c-0.001,0.003-0.022,0.041-0.024,0.045c-0.178,0.377-0.25,0.756-0.204,1.016
		c0.009,0.074,0.028,0.13,0.049,0.167c0.065-0.046,0.142-0.123,0.235-0.22c0.09-0.09,0.246-0.115,0.348-0.041
		s0.149,0.198,0.092,0.311c-0.121,0.233-0.105,0.412-0.039,0.48c0.025,0.025,0.068,0.045,0.137,0.061
		c0.104,0.023,0.182,0.109,0.196,0.216c0.013,0.106-0.04,0.21-0.136,0.26c-0.508,0.267-0.787,0.584-0.787,0.892
		c0,0.604,1.131,1.313,3.023,1.456c0.125,0.01,0.225,0.106,0.236,0.229c0.058,0.57,0.486,1,0.998,1c0.172,0,0.34-0.053,0.499-0.154
		C41.688,47.53,41.735,47.517,41.784,47.517z"/>
</g>
<path d="M39.431,28.129c0-0.154-2.857-0.281-6.433-0.287c0.021-0.585,0.033-1.248,0.033-1.952c0-2.351-0.129-4.257-0.288-4.257
	s-0.288,1.906-0.288,4.257c0,0.704,0.012,1.367,0.032,1.952c-3.574,0.006-6.432,0.133-6.432,0.287c0,0.156,2.871,0.282,6.456,0.288
	c0.053,1.048,0.137,1.729,0.232,1.729c0.095,0,0.178-0.682,0.23-1.729C36.56,28.411,39.431,28.285,39.431,28.129z"/>
<g>
	<path d="M37.297,14.411L37.297,14.411l-0.581,0c-0.022,0.71-0.443,1.278-0.965,1.278s-0.943-0.568-0.966-1.278h-1.077
		c-0.023,0.71-0.444,1.278-0.966,1.278c-0.521,0-0.942-0.568-0.965-1.278H30.7c-0.023,0.71-0.444,1.278-0.965,1.278
		s-0.943-0.568-0.966-1.278h-0.582c-0.613,0.267-1.046,0.879-1.046,1.588c0,0.33,0.098,0.637,0.26,0.9
		c0.169-0.389,0.476-0.652,0.829-0.652c0.526,0,0.953,0.58,0.967,1.301h1.073c0.015-0.722,0.44-1.301,0.967-1.301
		s0.953,0.58,0.967,1.301h1.074c0.015-0.722,0.44-1.301,0.968-1.301c0.526,0,0.952,0.58,0.967,1.301h1.073
		c0.015-0.722,0.44-1.301,0.968-1.301c0.353,0,0.658,0.263,0.828,0.652c0.162-0.264,0.26-0.57,0.26-0.9
		C38.344,15.29,37.911,14.677,37.297,14.411z"/>
	<g>
		<path d="M30.935,10.354c-1.477-0.771-2.655-1.233-3.541,0.529c-0.194,0.459-0.134,0.87,0.269,1.289
			c1.57,1.224,3.661,1.093,4.461-0.562C32.235,11.145,31.792,10.765,30.935,10.354z M30.016,12.784
			c-0.496,0-0.897-0.402-0.897-0.898s0.402-0.897,0.897-0.897s0.897,0.402,0.897,0.897C30.914,12.382,30.512,12.784,30.016,12.784z"
			/>
		<path d="M38.093,10.883c-0.885-1.762-2.063-1.3-3.541-0.529c-0.857,0.411-1.301,0.79-1.189,1.256
			c0.801,1.655,2.891,1.786,4.461,0.562C38.228,11.752,38.286,11.342,38.093,10.883z M35.47,12.784
			c-0.495,0-0.896-0.402-0.896-0.898s0.401-0.897,0.896-0.897c0.496,0,0.898,0.402,0.898,0.897
			C36.368,12.382,35.966,12.784,35.47,12.784z"/>
	</g>
</g>
</svg>
