<?xml version="1.0" encoding="utf-8"?>
<!-- Generator: Adobe Illustrator 16.0.0, SVG Export Plug-In . SVG Version: 6.00 Build 0)  -->
<!DOCTYPE svg PUBLIC "-//W3C//DTD SVG 1.1//EN" "http://www.w3.org/Graphics/SVG/1.1/DTD/svg11.dtd">
<svg version="1.1" id="Layer_1" xmlns="http://www.w3.org/2000/svg" xmlns:xlink="http://www.w3.org/1999/xlink" x="0px" y="0px"
	 width="64px" height="64px" viewBox="0 0 64 64" enable-background="new 0 0 64 64" xml:space="preserve">
<path fill="#1f1913" d="M44.16,24.576c0-2.752,2.24-4.992,4.992-4.992s4.992,2.24,4.992,4.992s-2.24,4.992-4.992,4.992
	S44.16,27.328,44.16,24.576z M29.312,57.536v-1.345H17.6v1.345H29.312z M36.48,27.328c0.959,0.96,2.56,0.96,3.52,0s0.96-2.56,0-3.52
	L23.424,7.168c-0.96-0.96-2.56-0.96-3.52,0s-0.96,2.56,0,3.52L36.48,27.328z M50.368,40.191h11.136c1.408,0,2.496-1.151,2.496-2.496
	c0-1.344-1.152-2.495-2.496-2.495H51.393l-2.433-2.433h-7.104l6.785,6.721C49.088,39.936,49.664,40.191,50.368,40.191z M28.8,39.104
	l-7.296,12.608c-0.704,1.216-0.256,2.752,0.896,3.456c1.216,0.704,2.752,0.256,3.456-0.896l8.255-14.336
	c0.576-1.023,0.385-2.304-0.447-3.072l-9.6-9.663c-0.96-0.96-2.56-0.96-3.52,0s-0.96,2.56,0,3.52L28.8,39.104z M5.824,49.664
	l1.152-0.641L1.152,38.912L0,39.552L5.824,49.664z M6.976,40.064c-1.408,0-2.496,1.151-2.496,2.496c0,1.407,1.152,2.496,2.496,2.496
	h15.232c1.408,0,2.496-1.152,2.496-2.496v-5.633l-4.992-4.992v8.128l0,0"/>
</svg>
